{"glyphs":{"0":{"ha":739,"x_min":88,"x_max":657,"o":"m 433 970 q 657 756 565 970 l 657 233 q 471 9 657 121 q 396 0 435 0 l 349 0 q 125 140 223 0 q 88 233 100 140 l 88 737 q 284 970 88 862 l 433 970 m 256 728 l 256 243 q 321 177 256 177 l 424 177 q 490 243 490 177 l 490 756 q 452 793 490 770 l 294 793 q 256 728 256 778 z "},"1":{"ha":580,"x_min":75,"x_max":498,"o":"m 169 970 l 254 970 q 498 782 359 970 l 498 66 q 433 0 498 0 l 357 0 q 310 75 310 24 l 310 726 q 178 801 310 801 q 75 895 75 801 q 169 970 75 970 z "},"2":{"ha":835,"x_min":81,"x_max":754,"o":"m 165 972 l 492 972 q 754 823 754 928 l 754 551 q 521 401 754 455 l 343 401 q 269 280 269 401 q 343 178 269 178 l 661 178 q 754 84 754 178 q 661 0 754 0 l 353 0 q 81 178 81 44 l 81 401 q 334 579 81 526 l 502 579 q 568 645 568 579 l 568 729 q 502 794 568 794 l 184 794 q 91 888 91 794 l 91 897 q 165 972 91 972 z "},"3":{"ha":822,"x_min":81,"x_max":755,"o":"m 156 974 l 503 974 q 746 787 608 974 q 755 684 755 722 l 755 281 q 531 9 755 106 q 465 0 519 0 l 203 0 q 81 84 81 0 l 81 103 q 156 178 81 178 l 494 178 q 559 243 559 178 l 559 347 q 494 412 559 412 l 156 412 q 81 487 81 412 q 175 571 81 571 l 494 571 q 559 637 559 571 l 559 730 q 494 796 559 796 l 222 796 q 81 871 81 796 l 81 899 q 156 974 81 974 z "},"4":{"ha":808,"x_min":75,"x_max":737,"o":"m 168 970 l 177 970 q 271 849 271 970 l 271 616 q 392 569 285 569 l 401 569 q 541 644 541 569 l 541 877 q 635 970 541 970 l 644 970 q 737 877 737 970 l 737 121 q 653 0 737 0 l 616 0 q 541 94 541 0 l 541 336 q 476 401 541 401 l 327 401 q 84 578 218 401 q 75 625 75 594 l 75 877 q 168 970 75 970 z "},"5":{"ha":731,"x_min":81,"x_max":661,"o":"m 586 972 q 661 897 661 972 l 661 888 q 568 794 661 794 l 296 794 q 250 720 250 770 l 250 663 q 371 570 250 570 q 661 430 610 570 l 661 178 q 437 0 661 50 l 184 0 q 91 94 91 0 l 91 103 q 165 178 91 178 l 427 178 q 492 243 492 178 l 492 336 q 427 401 492 401 l 324 401 q 81 551 150 401 l 81 794 q 296 972 81 922 l 586 972 z "},"6":{"ha":837,"x_min":81,"x_max":753,"o":"m 334 970 l 632 970 q 725 868 725 970 q 604 793 725 793 l 315 793 q 268 681 275 793 q 315 578 268 599 l 454 578 q 734 410 617 578 q 753 364 753 410 l 753 214 q 529 0 753 123 l 342 0 q 91 186 229 0 l 81 243 l 81 709 q 214 937 81 842 q 334 970 269 969 m 268 280 q 342 177 268 177 l 501 177 q 567 243 567 177 l 567 336 q 501 401 567 401 l 342 401 q 268 280 268 401 z "},"7":{"ha":851,"x_min":75,"x_max":766,"o":"m 168 972 l 486 972 q 757 776 642 972 q 766 729 766 760 l 766 94 q 673 0 766 0 l 663 0 q 570 94 570 0 l 570 729 q 505 794 570 794 l 168 794 q 75 897 75 794 q 168 972 75 972 z "},"8":{"ha":844,"x_min":81,"x_max":764,"o":"m 483 972 q 754 776 640 972 q 764 729 764 760 l 764 654 q 642 514 764 553 l 642 477 q 754 383 753 396 q 764 299 764 332 l 764 271 q 605 37 764 140 q 502 0 568 0 l 343 0 q 91 187 230 0 l 81 243 l 81 327 q 203 477 81 408 l 203 495 q 91 598 91 582 l 81 654 l 81 729 q 306 972 81 854 l 483 972 m 277 729 l 277 645 q 418 570 277 570 l 427 570 q 568 645 568 570 l 568 729 q 502 794 568 794 l 343 794 q 277 729 277 794 m 277 336 l 277 243 q 343 178 277 178 l 502 178 q 568 243 568 178 l 568 336 q 502 401 568 401 l 343 401 q 277 336 277 401 z "},"9":{"ha":829,"x_min":75,"x_max":755,"o":"m 504 970 q 747 784 608 970 l 755 728 l 755 271 q 597 37 755 137 q 494 0 560 0 l 205 0 q 112 94 112 0 l 112 102 q 186 177 112 177 l 494 177 q 560 243 560 177 l 560 336 q 494 401 560 401 l 327 401 q 94 569 227 401 q 75 644 75 604 l 75 728 q 298 970 75 852 l 504 970 m 271 728 l 271 644 q 410 569 271 569 l 420 569 q 560 644 560 569 l 560 728 q 494 793 560 793 l 336 793 q 271 728 271 793 z "}," ":{"ha":345,"x_min":0,"x_max":0,"o":""},"!":{"ha":456,"x_min":130,"x_max":323,"o":"m 203 970 l 241 970 q 315 897 315 970 l 315 333 q 241 259 315 259 l 203 259 q 130 351 130 259 l 130 897 q 203 970 130 970 m 213 176 l 250 176 q 323 102 323 176 l 323 74 q 250 0 323 0 l 213 0 q 139 74 139 0 l 139 102 q 213 176 139 176 z "},"\"":{"ha":456,"x_min":55,"x_max":401,"o":"m 113 1126 l 149 1126 q 206 1068 206 1126 l 206 945 q 134 866 206 866 l 113 866 q 55 924 55 866 l 55 1068 q 113 1126 55 1126 m 307 1126 l 343 1126 q 401 1068 401 1126 l 401 924 q 343 866 401 866 l 321 866 q 250 924 250 866 l 250 1090 q 307 1126 268 1126 z "},"#":{"ha":791,"x_min":54,"x_max":730,"o":"m 249 972 q 341 880 341 972 l 341 787 q 406 722 341 722 q 471 787 471 722 l 471 880 q 572 972 471 972 q 646 880 646 972 l 646 787 q 730 667 646 757 l 730 629 q 646 500 730 597 l 646 481 q 730 361 646 452 l 730 333 q 646 203 730 269 l 646 92 q 545 0 646 0 q 471 92 471 0 l 471 176 q 406 241 471 241 l 378 241 q 341 176 341 226 l 341 92 q 239 0 341 0 q 165 92 165 0 l 165 176 q 73 259 165 241 q 54 333 54 293 l 54 342 q 156 435 54 407 l 165 481 q 82 565 151 565 q 54 629 54 598 l 54 648 q 156 741 54 713 l 165 787 l 165 880 q 249 972 165 972 m 341 509 l 341 481 q 406 416 341 416 q 471 481 471 416 q 406 555 461 555 q 341 509 349 536 z "},"$":{"ha":837,"x_min":75,"x_max":758,"o":"m 402 1056 l 430 1056 q 533 962 480 962 l 701 962 q 748 888 748 939 l 748 869 q 673 794 748 794 l 524 794 q 458 728 458 794 l 458 635 q 599 551 458 564 q 758 391 758 487 l 758 176 q 533 -1 758 54 q 430 -104 467 -1 l 402 -104 q 346 -11 384 -103 l 299 -1 l 178 -1 q 84 92 84 -1 q 178 167 84 167 l 299 167 q 374 289 374 167 q 252 401 374 401 q 75 578 75 473 l 75 785 q 299 962 75 910 q 402 1056 340 962 m 271 728 l 271 635 q 328 578 271 578 l 336 578 q 374 691 374 578 q 336 785 367 785 l 328 785 q 271 728 271 785 m 458 326 l 458 233 q 486 176 464 176 l 533 176 q 562 233 562 186 l 562 326 q 533 382 562 374 l 486 382 q 458 326 458 373 z "},"%":{"ha":1055,"x_min":75,"x_max":989,"o":"m 821 970 l 840 970 q 905 924 905 970 q 308 9 382 93 l 243 0 l 224 0 q 159 47 159 0 q 755 961 703 909 l 821 970 m 196 951 l 271 951 q 392 831 392 920 l 392 625 q 243 504 392 523 l 224 504 q 75 635 96 504 l 75 784 q 196 951 91 951 m 168 802 l 168 653 q 233 588 168 588 q 298 653 298 588 l 298 802 q 233 868 298 868 q 168 802 168 868 m 793 467 l 859 467 q 989 317 964 467 l 989 168 q 821 19 989 19 q 663 186 663 19 l 663 317 q 793 467 688 467 m 755 317 l 755 168 q 821 102 755 102 l 831 102 q 896 168 896 102 l 896 317 q 831 382 896 382 l 821 382 q 755 317 755 382 z "},"&":{"ha":1141,"x_min":0,"x_max":0,"o":""},"'":{"ha":249,"x_min":55,"x_max":206,"o":"m 113 1126 l 149 1126 q 206 1068 206 1126 l 206 945 q 134 866 206 866 l 113 866 q 55 924 55 866 l 55 1068 q 113 1126 55 1126 z "},"(":{"ha":514,"x_min":75,"x_max":420,"o":"m 345 970 q 420 877 420 970 l 420 868 q 280 784 420 784 q 261 728 261 753 l 261 243 q 401 159 261 172 q 420 84 420 125 l 420 75 q 345 0 420 0 q 121 121 238 0 q 75 224 75 154 l 75 728 q 280 961 75 844 q 345 970 317 970 z "},")":{"ha":514,"x_min":88,"x_max":434,"o":"m 172 972 q 425 785 290 972 l 434 729 l 434 224 q 219 0 434 117 l 163 0 q 88 75 88 0 l 88 84 q 229 187 88 187 q 247 243 247 218 l 247 729 q 116 804 247 804 q 88 869 88 838 l 88 878 q 172 972 88 972 z "},"*":{"ha":515,"x_min":79,"x_max":425,"o":"m 252 1128 l 267 1128 q 339 1057 305 1057 q 425 999 425 1057 l 425 984 q 325 926 425 926 q 288 869 288 908 q 375 811 288 811 q 425 753 420 811 l 425 739 q 310 674 425 674 q 267 616 273 616 l 245 616 q 166 682 212 682 q 79 753 79 682 q 209 819 79 819 q 224 862 224 842 l 224 876 q 101 934 224 934 q 79 999 79 962 q 209 1063 79 1063 q 252 1128 236 1126 z "},"+":{"ha":688,"x_min":102,"x_max":606,"o":"m 362 763 q 438 612 438 763 l 589 578 q 606 503 606 548 q 446 427 606 427 q 421 292 432 410 l 387 267 l 312 267 q 261 418 272 267 l 119 452 q 102 528 102 491 q 253 604 102 604 l 287 746 q 362 763 317 763 z "},",":{"ha":478,"x_min":149,"x_max":353,"o":"m 250 164 q 353 62 353 164 l 353 -132 q 271 -213 353 -213 l 230 -213 q 149 -132 149 -213 l 149 62 q 250 164 149 164 z "},"-":{"ha":611,"x_min":57,"x_max":538,"o":"m 138 593 l 456 593 q 538 503 538 593 q 456 438 538 438 l 138 438 q 57 528 57 438 q 138 593 57 593 z "},".":{"ha":398,"x_min":109,"x_max":293,"o":"m 201 184 q 293 92 293 184 l 293 74 q 201 0 293 0 l 182 0 q 109 46 132 0 l 109 138 q 201 184 132 184 z "},"/":{"ha":576,"x_min":75,"x_max":505,"o":"m 411 972 l 420 972 q 505 925 505 972 q 233 19 280 94 q 178 0 203 0 l 140 0 q 75 47 75 0 q 355 962 311 962 l 411 972 z "},":":{"ha":398,"x_min":106,"x_max":291,"o":"m 199 419 q 291 327 291 419 l 291 309 q 199 235 291 235 l 180 235 q 106 281 130 235 l 106 373 q 199 419 130 419 m 199 770 q 291 678 291 770 l 291 660 q 199 586 291 586 l 180 586 q 106 632 130 586 l 106 724 q 199 770 130 770 z "},";":{"ha":398,"x_min":99,"x_max":316,"o":"m 208 836 q 316 727 316 836 l 316 705 q 208 618 316 618 l 186 618 q 99 673 127 618 l 99 781 q 208 836 126 836 m 206 422 q 309 321 309 422 l 309 127 q 227 45 309 45 l 186 45 q 104 127 104 45 l 104 321 q 206 422 104 422 z "},"<":{"ha":688,"x_min":0,"x_max":0,"o":""},"=":{"ha":688,"x_min":131,"x_max":564,"o":"m 221 708 l 473 708 q 564 609 564 708 q 473 537 564 537 l 248 537 q 131 618 131 537 l 131 636 q 221 708 131 708 m 221 401 l 473 401 q 564 302 564 401 q 473 231 564 231 l 221 231 q 131 330 131 231 q 221 401 131 401 z "},">":{"ha":688,"x_min":0,"x_max":0,"o":""},"?":{"ha":793,"x_min":68,"x_max":745,"o":"m 170 974 l 476 974 q 736 844 640 968 q 745 798 745 829 l 745 575 q 374 399 724 399 l 300 399 q 254 278 268 399 l 216 250 l 142 250 q 77 315 77 250 l 77 427 q 309 575 77 522 l 485 575 q 559 696 559 575 q 485 798 559 798 l 170 798 q 77 890 77 798 q 170 974 77 974 m 142 186 l 179 186 q 254 93 254 186 l 254 74 q 179 0 254 0 l 142 0 q 68 74 68 0 l 68 111 q 142 186 68 186 z "},"@":{"ha":1805,"x_min":54,"x_max":1729,"o":"m 243 870 q 342 793 284 870 l 342 771 q 317 758 338 758 l 304 758 q 248 793 283 758 l 157 793 q 140 754 140 787 l 140 564 q 157 534 140 541 l 248 534 l 291 573 l 304 573 q 347 551 337 573 l 347 543 q 243 457 347 502 l 170 457 q 58 547 109 457 l 58 736 q 162 870 58 836 l 243 870 m 408 870 l 433 870 q 472 784 472 870 l 472 736 q 511 720 477 720 l 553 720 q 593 749 593 720 l 593 848 q 614 870 593 854 l 640 870 q 674 836 674 870 l 674 758 q 584 642 674 702 q 575 616 575 628 l 575 491 q 553 457 575 468 l 524 457 q 489 500 489 457 l 489 625 q 386 749 386 707 l 386 827 q 408 870 386 861 m 829 870 l 894 870 q 1006 784 953 870 q 1010 732 1010 753 q 958 668 1010 702 l 958 659 q 1010 582 1010 628 l 1010 577 q 903 457 1010 492 l 829 457 q 722 551 763 457 l 722 771 q 829 870 722 831 m 1200 870 l 1324 870 q 1359 848 1348 870 l 1359 814 q 1316 793 1350 793 l 1174 793 q 1156 754 1156 787 l 1156 728 q 1196 694 1156 694 l 1277 694 q 1299 659 1299 682 q 1277 633 1293 642 l 1204 633 q 1156 599 1156 633 l 1156 564 q 1174 534 1156 541 l 1299 534 q 1359 500 1359 534 l 1359 474 q 1329 457 1352 457 l 1187 457 q 1079 543 1127 457 q 1075 599 1075 571 l 1075 736 q 1161 866 1075 838 q 1200 870 1184 870 m 1535 870 l 1617 870 q 1729 775 1675 870 l 1729 720 q 1699 663 1727 690 q 1729 599 1729 612 l 1729 487 q 1699 457 1729 457 l 1678 457 q 1647 487 1647 457 l 1647 586 q 1630 625 1647 619 l 1553 625 q 1527 599 1527 625 l 1527 491 q 1506 457 1527 468 l 1458 457 q 1441 487 1441 464 l 1441 762 q 1535 870 1441 820 m 1527 775 l 1527 715 q 1540 702 1527 709 l 1630 702 q 1647 732 1647 709 l 1647 754 q 1609 797 1647 797 l 1570 797 q 1527 775 1537 797 m 804 780 l 804 715 q 821 698 804 709 l 898 698 q 928 736 928 698 l 928 762 q 911 793 928 786 l 817 793 q 804 780 810 793 m 804 612 l 804 547 q 842 530 809 530 l 885 530 q 928 564 928 530 l 928 595 q 894 629 928 629 l 833 629 q 804 612 810 629 m 101 399 l 308 399 q 342 366 342 399 l 342 353 q 283 319 342 319 q 245 306 245 319 l 245 35 q 224 -7 245 3 l 181 -7 q 164 10 174 -7 l 164 268 q 135 319 164 319 l 92 319 q 54 357 54 324 q 101 399 54 399 m 465 399 q 477 387 471 399 l 477 27 q 444 -7 477 -7 l 431 -7 q 389 69 389 -7 l 389 264 q 452 399 389 369 l 465 399 m 566 399 l 774 399 q 808 366 808 399 l 808 353 q 749 319 808 319 q 710 306 710 319 l 710 35 q 689 -7 710 3 l 647 -7 q 630 10 640 -7 l 630 268 q 600 319 630 319 l 558 319 q 520 357 520 324 q 566 399 520 399 m 876 399 l 1083 399 q 1117 366 1117 399 l 1117 353 q 1057 319 1117 319 q 1019 306 1019 319 l 1019 35 q 998 -7 1019 3 l 956 -7 q 939 10 949 -7 l 939 268 q 909 319 939 319 l 867 319 q 829 357 829 324 q 876 399 829 399 m 1189 399 l 1206 399 q 1235 382 1228 399 l 1235 99 q 1252 69 1235 76 l 1341 69 q 1400 31 1400 69 l 1400 14 q 1367 -7 1390 -7 l 1269 -7 q 1155 90 1196 -7 l 1155 357 q 1189 399 1155 399 m 1569 399 l 1692 399 q 1726 378 1715 399 l 1726 345 q 1684 323 1716 323 l 1544 323 q 1527 285 1527 317 l 1527 260 q 1565 226 1527 226 l 1646 226 q 1667 192 1667 214 q 1646 167 1661 174 l 1574 167 q 1527 133 1527 167 l 1527 99 q 1544 69 1527 76 l 1667 69 q 1726 35 1726 69 l 1726 10 q 1697 -7 1719 -7 l 1557 -7 q 1451 77 1498 -7 q 1447 133 1447 106 l 1447 268 q 1531 395 1447 367 q 1569 399 1554 399 m 216 1093 q 240 1080 240 1086 l 240 1077 q 203 943 214 943 q 165 980 165 954 l 161 983 q 146 939 156 983 l 140 938 q 106 964 122 938 q 79 1069 106 971 l 79 1075 q 95 1084 85 1084 l 100 1084 q 123 1023 106 1081 l 127 1023 q 143 1070 139 1067 l 148 1070 q 185 1023 174 1070 l 189 1022 q 210 1090 194 1022 q 216 1093 213 1093 m 296 1093 l 319 1093 q 366 1056 349 1093 l 366 983 q 340 945 366 958 q 319 938 340 939 l 298 938 q 256 972 276 938 l 256 1053 q 296 1093 256 1078 m 427 1093 l 450 1093 q 496 1056 480 1093 l 496 983 q 471 945 496 958 q 450 938 471 939 l 429 938 q 387 972 407 938 l 387 1053 q 427 1093 387 1078 m 535 1093 l 585 1093 q 625 1062 604 1093 q 627 1048 627 1053 l 627 981 q 587 938 627 951 l 532 938 q 519 951 519 938 l 519 1080 q 535 1093 519 1093 m 721 1093 q 758 1064 736 1093 l 758 1056 q 748 1051 756 1051 l 743 1051 q 722 1064 735 1051 l 688 1064 q 682 1049 682 1061 l 682 978 q 688 967 682 970 l 722 967 l 739 981 l 743 981 q 760 973 755 981 l 760 970 q 721 938 760 955 l 693 938 q 651 972 670 938 l 651 1043 q 690 1093 651 1080 l 721 1093 m 802 1093 q 814 1080 814 1092 l 814 978 q 830 965 814 965 l 845 965 q 859 972 857 965 l 859 1065 q 874 1093 859 1093 q 890 1080 890 1093 l 890 977 q 853 938 890 954 l 825 938 q 785 970 805 938 q 783 994 783 984 l 783 1065 q 800 1093 783 1093 l 802 1093 m 924 1093 l 1003 1093 q 1016 1080 1016 1093 l 1016 1075 q 994 1062 1016 1062 q 979 1057 979 1062 l 979 954 q 970 938 979 941 l 955 938 q 948 945 952 938 l 948 1043 q 937 1062 948 1062 l 921 1062 q 906 1077 906 1064 q 924 1093 906 1093 m 1042 1093 l 1121 1093 q 1134 1080 1134 1093 l 1134 1075 q 1111 1062 1134 1062 q 1097 1057 1097 1062 l 1097 954 q 1088 938 1097 941 l 1072 938 q 1066 945 1069 938 l 1066 1043 q 1055 1062 1066 1062 l 1038 1062 q 1024 1077 1024 1064 q 1042 1093 1024 1093 m 1198 1093 l 1245 1093 q 1258 1084 1254 1093 l 1258 1072 q 1242 1064 1254 1064 l 1188 1064 q 1182 1049 1182 1061 l 1182 1040 q 1196 1027 1182 1027 l 1227 1027 q 1235 1014 1235 1022 q 1227 1004 1233 1007 l 1200 1004 q 1182 991 1182 1004 l 1182 978 q 1188 967 1182 970 l 1235 967 q 1258 954 1258 967 l 1258 945 q 1246 938 1255 938 l 1194 938 q 1153 970 1171 938 q 1152 991 1152 981 l 1152 1043 q 1183 1091 1152 1080 q 1198 1093 1192 1093 m 1324 1093 l 1354 1093 q 1396 1057 1376 1093 l 1396 1036 q 1385 1015 1396 1025 q 1396 991 1396 996 l 1396 949 q 1385 938 1396 938 l 1377 938 q 1366 949 1366 938 l 1366 986 q 1360 1001 1366 999 l 1331 1001 q 1320 991 1320 1001 l 1320 951 q 1313 938 1320 942 l 1295 938 q 1289 949 1289 941 l 1289 1053 q 1324 1093 1289 1074 m 1529 1093 l 1575 1093 q 1588 1084 1584 1093 l 1588 1072 q 1573 1064 1585 1064 l 1519 1064 q 1513 1049 1513 1061 l 1513 1040 q 1527 1027 1513 1027 l 1558 1027 q 1566 1014 1566 1022 q 1558 1004 1564 1007 l 1531 1004 q 1513 991 1513 1004 l 1513 978 q 1519 967 1513 970 l 1566 967 q 1588 954 1588 967 l 1588 945 q 1577 938 1586 938 l 1524 938 q 1484 970 1501 938 q 1482 991 1482 981 l 1482 1043 q 1514 1091 1482 1080 q 1529 1093 1523 1093 m 1664 1093 l 1711 1093 q 1726 1082 1726 1093 l 1726 1074 q 1703 1064 1722 1064 l 1656 1064 q 1650 1053 1650 1061 l 1650 1041 q 1661 1030 1650 1030 l 1677 1030 q 1727 1002 1721 1030 l 1727 964 q 1677 938 1727 943 l 1634 938 q 1619 956 1620 938 q 1627 965 1622 962 l 1681 965 q 1695 972 1693 965 l 1695 996 q 1684 1002 1692 1002 l 1656 1002 q 1619 1027 1619 1009 q 1617 1038 1617 1029 l 1617 1048 q 1630 1083 1617 1083 q 1664 1093 1648 1093 m 1320 1057 l 1320 1035 q 1326 1030 1320 1032 l 1360 1030 q 1366 1041 1366 1032 l 1366 1049 q 1352 1065 1366 1065 l 1337 1065 q 1320 1057 1324 1065 m 288 1054 l 288 977 q 303 965 288 965 l 319 965 q 334 977 334 965 l 334 1057 q 327 1064 334 1060 l 298 1064 q 288 1054 288 1064 m 419 1054 l 419 977 q 433 965 419 965 l 450 965 q 464 977 464 965 l 464 1057 q 458 1064 464 1060 l 429 1064 q 419 1054 419 1064 m 549 1059 l 549 972 q 555 967 549 970 l 590 967 q 596 978 596 970 l 596 1053 q 590 1064 596 1061 l 555 1064 q 549 1059 552 1064 m 1435 967 l 1440 967 q 1453 954 1453 967 l 1453 946 q 1440 938 1449 938 l 1435 938 q 1422 946 1426 938 l 1422 959 q 1435 967 1426 967 m 216 -65 q 240 -78 240 -72 l 240 -81 q 203 -215 214 -215 q 165 -178 165 -203 l 161 -174 q 146 -218 156 -174 l 140 -220 q 106 -194 122 -220 q 79 -89 106 -186 l 79 -83 q 95 -73 85 -73 l 100 -73 q 123 -134 106 -77 l 127 -134 q 143 -87 139 -91 l 148 -87 q 185 -134 174 -87 l 189 -136 q 210 -68 194 -136 q 216 -65 213 -65 m 296 -65 l 319 -65 q 366 -102 349 -65 l 366 -174 q 340 -213 366 -199 q 319 -220 340 -218 l 298 -220 q 256 -186 276 -220 l 256 -105 q 296 -65 256 -80 m 427 -65 l 450 -65 q 496 -102 480 -65 l 496 -174 q 471 -213 496 -199 q 450 -220 471 -218 l 429 -220 q 387 -186 407 -220 l 387 -105 q 427 -65 387 -80 m 535 -65 l 585 -65 q 625 -96 604 -65 q 627 -110 627 -104 l 627 -176 q 587 -220 627 -206 l 532 -220 q 519 -207 519 -220 l 519 -78 q 535 -65 519 -65 m 721 -65 q 758 -94 736 -65 l 758 -102 q 748 -106 756 -106 l 743 -106 q 722 -94 735 -106 l 688 -94 q 682 -109 682 -96 l 682 -180 q 688 -191 682 -188 l 722 -191 l 739 -176 l 743 -176 q 760 -184 755 -176 l 760 -187 q 721 -220 760 -203 l 693 -220 q 651 -186 670 -220 l 651 -115 q 690 -65 651 -78 l 721 -65 m 802 -65 q 814 -78 814 -66 l 814 -180 q 830 -193 814 -193 l 845 -193 q 859 -186 857 -193 l 859 -92 q 874 -65 859 -65 q 890 -78 890 -65 l 890 -181 q 853 -220 890 -203 l 825 -220 q 785 -187 805 -220 q 783 -163 783 -174 l 783 -92 q 800 -65 783 -65 l 802 -65 m 924 -65 l 1003 -65 q 1016 -78 1016 -65 l 1016 -83 q 994 -96 1016 -96 q 979 -100 979 -96 l 979 -203 q 970 -220 979 -216 l 955 -220 q 948 -213 952 -220 l 948 -115 q 937 -96 948 -96 l 921 -96 q 906 -81 906 -94 q 924 -65 906 -65 m 1042 -65 l 1121 -65 q 1134 -78 1134 -65 l 1134 -83 q 1111 -96 1134 -96 q 1097 -100 1097 -96 l 1097 -203 q 1088 -220 1097 -216 l 1072 -220 q 1066 -213 1069 -220 l 1066 -115 q 1055 -96 1066 -96 l 1038 -96 q 1024 -81 1024 -94 q 1042 -65 1024 -65 m 1198 -65 l 1245 -65 q 1258 -73 1254 -65 l 1258 -86 q 1242 -94 1254 -94 l 1188 -94 q 1182 -109 1182 -96 l 1182 -118 q 1196 -131 1182 -131 l 1227 -131 q 1235 -144 1235 -136 q 1227 -153 1233 -151 l 1200 -153 q 1182 -167 1182 -153 l 1182 -180 q 1188 -191 1182 -188 l 1235 -191 q 1258 -203 1258 -191 l 1258 -213 q 1246 -220 1255 -220 l 1194 -220 q 1153 -187 1171 -220 q 1152 -167 1152 -177 l 1152 -115 q 1183 -66 1152 -77 q 1198 -65 1192 -65 m 1324 -65 l 1354 -65 q 1396 -100 1376 -65 l 1396 -121 q 1385 -142 1396 -132 q 1396 -167 1396 -161 l 1396 -208 q 1385 -220 1396 -220 l 1377 -220 q 1366 -208 1366 -220 l 1366 -172 q 1360 -157 1366 -159 l 1331 -157 q 1320 -167 1320 -157 l 1320 -207 q 1313 -220 1320 -216 l 1295 -220 q 1289 -208 1289 -217 l 1289 -105 q 1324 -65 1289 -84 m 1529 -65 l 1575 -65 q 1588 -73 1584 -65 l 1588 -86 q 1573 -94 1585 -94 l 1519 -94 q 1513 -109 1513 -96 l 1513 -118 q 1527 -131 1513 -131 l 1558 -131 q 1566 -144 1566 -136 q 1558 -153 1564 -151 l 1531 -153 q 1513 -167 1513 -153 l 1513 -180 q 1519 -191 1513 -188 l 1566 -191 q 1588 -203 1588 -191 l 1588 -213 q 1577 -220 1586 -220 l 1524 -220 q 1484 -187 1501 -220 q 1482 -167 1482 -177 l 1482 -115 q 1514 -66 1482 -77 q 1529 -65 1523 -65 m 1664 -65 l 1711 -65 q 1726 -76 1726 -65 l 1726 -84 q 1703 -94 1722 -94 l 1656 -94 q 1650 -105 1650 -96 l 1650 -117 q 1661 -127 1650 -127 l 1677 -127 q 1727 -155 1721 -127 l 1727 -194 q 1677 -220 1727 -215 l 1634 -220 q 1619 -202 1620 -220 q 1627 -193 1622 -195 l 1681 -193 q 1695 -186 1693 -193 l 1695 -161 q 1684 -155 1692 -155 l 1656 -155 q 1619 -131 1619 -149 q 1617 -120 1617 -129 l 1617 -110 q 1630 -75 1617 -75 q 1664 -65 1648 -65 m 1320 -100 l 1320 -123 q 1326 -127 1320 -125 l 1360 -127 q 1366 -117 1366 -125 l 1366 -109 q 1352 -92 1366 -92 l 1337 -92 q 1320 -100 1324 -92 m 288 -104 l 288 -181 q 303 -193 288 -193 l 319 -193 q 334 -181 334 -193 l 334 -100 q 327 -94 334 -98 l 298 -94 q 288 -104 288 -94 m 419 -104 l 419 -181 q 433 -193 419 -193 l 450 -193 q 464 -181 464 -193 l 464 -100 q 458 -94 464 -98 l 429 -94 q 419 -104 419 -94 m 549 -99 l 549 -186 q 555 -191 549 -188 l 590 -191 q 596 -180 596 -188 l 596 -105 q 590 -94 596 -96 l 555 -94 q 549 -99 552 -94 m 1435 -191 l 1440 -191 q 1453 -203 1453 -191 l 1453 -212 q 1440 -220 1449 -220 l 1435 -220 q 1422 -212 1426 -220 l 1422 -199 q 1435 -191 1426 -191 z "},"A":{"ha":837,"x_min":75,"x_max":775,"o":"m 346 972 l 514 972 q 747 785 621 972 l 775 467 q 757 317 757 361 l 757 94 q 663 0 757 0 l 654 0 q 579 47 603 0 l 579 309 q 505 401 579 401 l 346 401 q 280 336 280 401 l 280 94 q 186 0 280 0 l 178 0 q 102 47 127 0 l 102 290 q 75 486 102 330 q 102 673 102 621 l 102 757 q 271 953 102 831 q 346 972 305 972 m 280 729 l 280 626 q 346 561 280 561 l 505 561 q 579 654 579 561 l 579 701 q 505 794 579 794 l 346 794 q 280 729 280 794 z "},"B":{"ha":827,"x_min":81,"x_max":753,"o":"m 501 970 q 744 784 609 970 l 753 728 l 753 644 q 632 504 753 557 l 632 486 q 734 401 632 467 q 753 327 753 367 l 753 243 q 529 0 753 116 l 334 0 q 91 186 214 0 q 81 233 81 202 l 81 709 q 315 970 81 876 l 501 970 m 268 728 l 268 635 q 334 569 268 569 l 501 569 q 567 635 567 569 l 567 728 q 501 793 567 793 l 334 793 q 268 728 268 793 m 268 336 l 268 243 q 334 177 268 177 l 501 177 q 567 243 567 177 l 567 336 q 501 401 567 401 l 334 401 q 268 336 268 401 z "},"C":{"ha":827,"x_min":88,"x_max":761,"o":"m 509 972 q 751 785 617 972 l 751 747 q 686 710 736 710 l 649 710 q 536 794 606 710 l 340 794 q 275 729 275 794 l 275 243 q 340 178 275 178 l 509 178 q 621 271 545 178 l 686 271 q 761 205 761 262 q 555 9 761 132 q 509 0 540 0 l 340 0 q 98 178 231 0 q 88 224 88 193 l 88 710 q 321 972 88 875 l 509 972 z "},"D":{"ha":827,"x_min":81,"x_max":754,"o":"m 175 972 l 502 972 q 736 804 601 972 q 754 729 754 770 l 754 233 q 521 0 754 105 l 175 0 q 81 94 81 0 l 81 878 q 175 972 81 972 m 269 729 l 269 243 q 334 178 269 178 l 502 178 q 568 243 568 178 l 568 729 q 502 794 568 794 l 334 794 q 269 729 269 794 z "},"E":{"ha":848,"x_min":88,"x_max":751,"o":"m 340 972 l 659 972 q 751 897 751 972 l 751 869 q 659 794 751 794 l 340 794 q 275 729 275 794 l 275 626 q 340 561 275 561 l 528 561 q 602 467 602 561 q 528 411 583 411 l 350 411 q 275 364 299 411 l 275 243 q 340 178 275 178 l 659 178 q 751 84 751 178 l 751 75 q 677 0 751 0 l 340 0 q 98 187 225 0 q 88 262 88 223 l 88 710 q 222 935 88 844 q 340 972 279 966 z "},"F":{"ha":824,"x_min":81,"x_max":744,"o":"m 334 970 l 650 970 q 744 896 744 970 l 744 868 q 650 793 744 793 l 334 793 q 268 728 268 793 l 268 625 q 334 560 268 560 l 520 560 q 595 467 595 560 q 520 410 575 410 l 342 410 q 268 364 292 410 l 268 94 q 175 0 268 0 q 81 94 81 0 l 81 709 q 226 939 81 840 q 334 970 280 972 z "},"G":{"ha":831,"x_min":81,"x_max":764,"o":"m 652 972 q 745 897 745 972 l 745 869 q 652 794 745 794 l 334 794 q 269 729 269 794 l 269 243 q 334 178 269 178 l 511 178 q 576 243 576 178 l 576 336 q 427 411 576 411 q 399 477 399 446 l 399 495 q 474 570 399 570 l 530 570 q 764 411 764 520 l 764 178 q 680 56 764 96 q 502 0 588 0 l 334 0 q 91 187 222 0 q 81 262 81 223 l 81 729 q 306 972 81 856 l 652 972 z "},"H":{"ha":837,"x_min":88,"x_max":762,"o":"m 182 974 q 275 880 275 974 l 275 637 q 341 571 275 571 l 509 571 q 575 637 575 571 l 575 880 q 669 974 575 974 q 762 880 762 974 l 762 94 q 669 0 762 0 q 575 94 575 0 l 575 337 q 509 403 575 403 l 341 403 q 275 337 275 403 l 275 94 q 182 0 275 0 q 88 94 88 0 l 88 880 q 182 974 88 974 z "},"I":{"ha":380,"x_min":88,"x_max":296,"o":"m 237 970 l 267 970 q 296 911 296 960 l 296 99 q 197 0 296 0 l 187 0 q 88 129 88 0 l 88 723 q 237 970 88 889 z "},"J":{"ha":691,"x_min":18,"x_max":630,"o":"m 535 972 q 630 877 630 972 l 630 238 q 401 0 630 117 l 306 0 q 41 176 163 0 q 20 248 18 209 q 115 324 20 324 l 125 324 q 230 200 230 324 q 287 181 261 181 l 373 181 q 439 248 439 181 l 439 877 q 535 972 439 972 z "},"K":{"ha":804,"x_min":75,"x_max":737,"o":"m 168 970 q 261 924 240 970 l 261 588 q 308 513 261 537 l 485 513 q 551 578 551 513 l 551 877 q 644 970 551 970 l 653 970 q 737 905 737 970 l 737 597 q 663 448 737 539 l 663 429 q 737 298 737 332 l 737 47 q 663 0 713 0 l 644 0 q 551 94 551 0 l 551 271 q 485 336 551 336 l 336 336 q 261 243 261 336 l 261 47 q 186 0 237 0 l 168 0 q 75 94 75 0 l 75 877 q 168 970 75 970 z "},"L":{"ha":677,"x_min":68,"x_max":647,"o":"m 142 972 l 180 972 q 255 897 255 972 l 255 243 q 320 178 255 178 l 554 178 q 647 75 647 178 q 554 0 647 0 l 348 0 q 68 205 186 0 l 68 897 q 142 972 68 972 z "},"M":{"ha":918,"x_min":81,"x_max":848,"o":"m 324 972 q 465 916 338 972 q 614 972 591 972 q 848 785 701 972 l 848 47 q 754 0 824 0 q 661 94 661 0 l 661 729 q 605 794 661 794 q 558 729 558 781 l 558 75 q 465 0 558 0 q 371 75 371 0 l 371 729 q 315 794 371 794 q 269 729 269 781 l 269 94 q 165 0 269 0 q 81 94 81 0 l 81 739 q 296 972 81 854 l 324 972 z "},"N":{"ha":829,"x_min":88,"x_max":761,"o":"m 659 972 l 667 972 q 761 878 761 972 l 761 271 q 583 47 761 114 l 574 47 q 331 411 541 68 l 294 411 l 284 364 l 284 103 q 191 0 284 0 q 88 94 88 0 l 88 729 q 256 935 88 841 l 275 935 q 509 570 331 881 l 528 561 l 555 561 l 565 608 l 565 878 q 659 972 565 972 z "},"O":{"ha":824,"x_min":75,"x_max":755,"o":"m 504 970 q 747 784 612 970 q 755 700 755 733 l 755 261 q 635 75 755 138 q 467 0 587 0 l 336 0 q 84 177 233 0 l 75 233 l 75 728 q 298 970 75 852 l 504 970 m 271 728 l 271 243 q 336 177 271 177 l 494 177 q 560 243 560 177 l 560 728 q 494 793 560 793 l 336 793 q 271 728 271 793 z "},"P":{"ha":848,"x_min":88,"x_max":770,"o":"m 509 972 q 761 776 616 972 l 770 720 l 770 626 q 546 393 770 509 l 350 393 q 284 327 284 393 l 284 94 q 182 0 284 0 q 88 94 88 0 l 88 729 q 313 972 88 854 l 509 972 m 284 729 l 284 635 q 350 570 284 570 l 509 570 q 574 635 574 570 l 574 729 q 509 794 574 794 l 350 794 q 284 729 284 794 z "},"Q":{"ha":835,"x_min":81,"x_max":764,"o":"m 511 972 q 754 785 619 972 l 764 729 l 764 233 q 680 75 764 174 l 680 65 q 699 0 699 5 q 595 -75 661 -75 l 568 -75 q 455 0 505 0 l 371 0 q 91 178 229 0 q 81 262 81 228 l 81 729 q 306 972 81 854 l 511 972 m 277 729 l 277 243 q 334 178 277 178 q 427 262 359 178 q 568 346 568 319 l 568 729 q 502 794 568 794 l 343 794 q 277 729 277 794 z "},"R":{"ha":829,"x_min":95,"x_max":770,"o":"m 511 972 q 762 777 618 972 l 770 722 l 770 629 q 696 481 770 568 l 762 370 q 770 296 770 334 l 770 92 q 696 0 770 0 l 650 0 q 576 92 576 0 l 576 333 q 511 398 576 398 l 354 398 q 290 333 290 398 l 290 72 q 243 -2 290 22 l 160 -2 q 95 81 95 -2 l 95 731 q 317 972 95 855 l 511 972 m 290 731 l 290 639 q 354 574 290 574 l 511 574 q 576 639 576 574 l 576 731 q 437 805 576 805 l 428 805 q 290 731 290 805 z "},"S":{"ha":844,"x_min":88,"x_max":769,"o":"m 349 970 l 686 970 q 760 896 760 970 l 760 886 q 648 793 760 793 l 349 793 q 284 728 284 793 l 284 644 q 349 578 284 578 l 480 578 q 760 439 716 556 q 769 392 769 423 l 769 168 q 498 0 769 48 l 191 0 q 98 102 98 0 q 191 177 98 177 l 508 177 q 574 243 574 177 l 574 336 q 508 401 574 401 l 331 401 q 88 578 88 449 l 88 765 q 163 914 88 873 q 349 970 276 970 z "},"T":{"ha":742,"x_min":27,"x_max":705,"o":"m 121 970 l 630 970 q 705 895 705 970 l 705 857 q 630 782 705 782 l 536 782 q 470 716 470 782 l 470 85 q 404 0 470 0 l 347 0 q 281 85 281 0 l 281 716 q 216 782 281 782 l 121 782 q 27 876 27 782 q 121 970 27 970 z "},"U":{"ha":829,"x_min":88,"x_max":751,"o":"m 182 970 q 275 877 275 970 l 275 243 q 340 177 275 177 l 498 177 q 564 243 564 177 l 564 849 q 648 970 564 970 l 657 970 q 751 877 751 970 l 751 243 q 555 9 751 135 l 498 0 l 340 0 q 98 186 231 0 q 88 271 88 237 l 88 849 q 172 970 88 970 l 182 970 z "},"V":{"ha":769,"x_min":41,"x_max":739,"o":"m 142 972 l 203 972 q 324 516 229 972 l 345 516 q 527 931 395 562 l 557 951 l 577 951 q 739 830 739 898 q 405 0 451 37 l 375 0 q 171 6 273 -16 q 41 931 41 808 q 142 972 83 972 z "},"W":{"ha":1075,"x_min":27,"x_max":1048,"o":"m 881 972 l 901 972 q 1048 864 1048 932 q 832 39 861 39 l 812 29 q 587 255 587 97 l 547 294 q 459 20 510 273 l 420 0 q 204 216 204 58 q 27 854 27 804 q 155 923 60 923 l 165 923 q 302 550 197 923 l 332 530 q 420 825 358 578 l 439 834 l 449 834 q 694 540 633 834 l 724 520 q 852 952 757 520 l 881 972 z "},"X":{"ha":720,"x_min":27,"x_max":688,"o":"m 538 972 q 688 842 593 956 l 688 812 q 518 491 688 788 q 508 461 508 471 l 678 140 q 548 0 678 94 l 538 0 q 378 180 481 0 q 348 191 358 191 q 218 30 324 191 l 197 30 q 47 180 47 87 q 187 461 157 374 l 187 471 q 27 781 187 497 l 27 791 q 187 942 113 942 q 317 772 225 939 q 348 751 348 762 q 498 951 388 755 l 538 972 z "},"Y":{"ha":731,"x_min":27,"x_max":697,"o":"m 75 972 l 140 972 q 216 849 216 972 l 216 689 q 282 623 216 623 l 442 623 q 509 689 509 623 l 509 897 q 555 972 509 947 l 621 972 q 697 878 697 972 l 697 717 q 499 453 697 567 q 461 378 461 413 l 461 75 q 386 0 461 0 l 357 0 q 263 113 263 0 l 263 406 q 27 651 27 593 l 27 897 q 75 972 27 947 z "},"Z":{"ha":829,"x_min":88,"x_max":747,"o":"m 161 970 l 564 970 q 729 797 671 970 l 729 787 q 372 229 729 760 l 372 211 q 427 183 381 183 l 674 183 q 747 138 724 183 l 747 46 q 674 0 724 0 l 271 0 q 106 201 146 0 l 464 732 l 464 760 q 409 787 454 787 l 161 787 q 88 879 88 787 q 161 970 88 970 z "},"[":{"ha":1805,"x_min":54,"x_max":1729,"o":"m 243 870 q 342 793 284 870 l 342 771 q 317 758 338 758 l 304 758 q 248 793 283 758 l 157 793 q 140 754 140 787 l 140 564 q 157 534 140 541 l 248 534 l 291 573 l 304 573 q 347 551 337 573 l 347 543 q 243 457 347 502 l 170 457 q 58 547 109 457 l 58 736 q 162 870 58 836 l 243 870 m 408 870 l 433 870 q 472 784 472 870 l 472 736 q 511 720 477 720 l 553 720 q 593 749 593 720 l 593 848 q 614 870 593 854 l 640 870 q 674 836 674 870 l 674 758 q 584 642 674 702 q 575 616 575 628 l 575 491 q 553 457 575 468 l 524 457 q 489 500 489 457 l 489 625 q 386 749 386 707 l 386 827 q 408 870 386 861 m 829 870 l 894 870 q 1006 784 953 870 q 1010 732 1010 753 q 958 668 1010 702 l 958 659 q 1010 582 1010 628 l 1010 577 q 903 457 1010 492 l 829 457 q 722 551 763 457 l 722 771 q 829 870 722 831 m 1200 870 l 1324 870 q 1359 848 1348 870 l 1359 814 q 1316 793 1350 793 l 1174 793 q 1156 754 1156 787 l 1156 728 q 1196 694 1156 694 l 1277 694 q 1299 659 1299 682 q 1277 633 1293 642 l 1204 633 q 1156 599 1156 633 l 1156 564 q 1174 534 1156 541 l 1299 534 q 1359 500 1359 534 l 1359 474 q 1329 457 1352 457 l 1187 457 q 1079 543 1127 457 q 1075 599 1075 571 l 1075 736 q 1161 866 1075 838 q 1200 870 1184 870 m 1535 870 l 1617 870 q 1729 775 1675 870 l 1729 720 q 1699 663 1727 690 q 1729 599 1729 612 l 1729 487 q 1699 457 1729 457 l 1678 457 q 1647 487 1647 457 l 1647 586 q 1630 625 1647 619 l 1553 625 q 1527 599 1527 625 l 1527 491 q 1506 457 1527 468 l 1458 457 q 1441 487 1441 464 l 1441 762 q 1535 870 1441 820 m 1527 775 l 1527 715 q 1540 702 1527 709 l 1630 702 q 1647 732 1647 709 l 1647 754 q 1609 797 1647 797 l 1570 797 q 1527 775 1537 797 m 804 780 l 804 715 q 821 698 804 709 l 898 698 q 928 736 928 698 l 928 762 q 911 793 928 786 l 817 793 q 804 780 810 793 m 804 612 l 804 547 q 842 530 809 530 l 885 530 q 928 564 928 530 l 928 595 q 894 629 928 629 l 833 629 q 804 612 810 629 m 101 399 l 308 399 q 342 366 342 399 l 342 353 q 283 319 342 319 q 245 306 245 319 l 245 35 q 224 -7 245 3 l 181 -7 q 164 10 174 -7 l 164 268 q 135 319 164 319 l 92 319 q 54 357 54 324 q 101 399 54 399 m 465 399 q 477 387 471 399 l 477 27 q 444 -7 477 -7 l 431 -7 q 389 69 389 -7 l 389 264 q 452 399 389 369 l 465 399 m 566 399 l 774 399 q 808 366 808 399 l 808 353 q 749 319 808 319 q 710 306 710 319 l 710 35 q 689 -7 710 3 l 647 -7 q 630 10 640 -7 l 630 268 q 600 319 630 319 l 558 319 q 520 357 520 324 q 566 399 520 399 m 876 399 l 1083 399 q 1117 366 1117 399 l 1117 353 q 1057 319 1117 319 q 1019 306 1019 319 l 1019 35 q 998 -7 1019 3 l 956 -7 q 939 10 949 -7 l 939 268 q 909 319 939 319 l 867 319 q 829 357 829 324 q 876 399 829 399 m 1189 399 l 1206 399 q 1235 382 1228 399 l 1235 99 q 1252 69 1235 76 l 1341 69 q 1400 31 1400 69 l 1400 14 q 1367 -7 1390 -7 l 1269 -7 q 1155 90 1196 -7 l 1155 357 q 1189 399 1155 399 m 1569 399 l 1692 399 q 1726 378 1715 399 l 1726 345 q 1684 323 1716 323 l 1544 323 q 1527 285 1527 317 l 1527 260 q 1565 226 1527 226 l 1646 226 q 1667 192 1667 214 q 1646 167 1661 174 l 1574 167 q 1527 133 1527 167 l 1527 99 q 1544 69 1527 76 l 1667 69 q 1726 35 1726 69 l 1726 10 q 1697 -7 1719 -7 l 1557 -7 q 1451 77 1498 -7 q 1447 133 1447 106 l 1447 268 q 1531 395 1447 367 q 1569 399 1554 399 m 216 1093 q 240 1080 240 1086 l 240 1077 q 203 943 214 943 q 165 980 165 954 l 161 983 q 146 939 156 983 l 140 938 q 106 964 122 938 q 79 1069 106 971 l 79 1075 q 95 1084 85 1084 l 100 1084 q 123 1023 106 1081 l 127 1023 q 143 1070 139 1067 l 148 1070 q 185 1023 174 1070 l 189 1022 q 210 1090 194 1022 q 216 1093 213 1093 m 296 1093 l 319 1093 q 366 1056 349 1093 l 366 983 q 340 945 366 958 q 319 938 340 939 l 298 938 q 256 972 276 938 l 256 1053 q 296 1093 256 1078 m 427 1093 l 450 1093 q 496 1056 480 1093 l 496 983 q 471 945 496 958 q 450 938 471 939 l 429 938 q 387 972 407 938 l 387 1053 q 427 1093 387 1078 m 535 1093 l 585 1093 q 625 1062 604 1093 q 627 1048 627 1053 l 627 981 q 587 938 627 951 l 532 938 q 519 951 519 938 l 519 1080 q 535 1093 519 1093 m 721 1093 q 758 1064 736 1093 l 758 1056 q 748 1051 756 1051 l 743 1051 q 722 1064 735 1051 l 688 1064 q 682 1049 682 1061 l 682 978 q 688 967 682 970 l 722 967 l 739 981 l 743 981 q 760 973 755 981 l 760 970 q 721 938 760 955 l 693 938 q 651 972 670 938 l 651 1043 q 690 1093 651 1080 l 721 1093 m 802 1093 q 814 1080 814 1092 l 814 978 q 830 965 814 965 l 845 965 q 859 972 857 965 l 859 1065 q 874 1093 859 1093 q 890 1080 890 1093 l 890 977 q 853 938 890 954 l 825 938 q 785 970 805 938 q 783 994 783 984 l 783 1065 q 800 1093 783 1093 l 802 1093 m 924 1093 l 1003 1093 q 1016 1080 1016 1093 l 1016 1075 q 994 1062 1016 1062 q 979 1057 979 1062 l 979 954 q 970 938 979 941 l 955 938 q 948 945 952 938 l 948 1043 q 937 1062 948 1062 l 921 1062 q 906 1077 906 1064 q 924 1093 906 1093 m 1042 1093 l 1121 1093 q 1134 1080 1134 1093 l 1134 1075 q 1111 1062 1134 1062 q 1097 1057 1097 1062 l 1097 954 q 1088 938 1097 941 l 1072 938 q 1066 945 1069 938 l 1066 1043 q 1055 1062 1066 1062 l 1038 1062 q 1024 1077 1024 1064 q 1042 1093 1024 1093 m 1198 1093 l 1245 1093 q 1258 1084 1254 1093 l 1258 1072 q 1242 1064 1254 1064 l 1188 1064 q 1182 1049 1182 1061 l 1182 1040 q 1196 1027 1182 1027 l 1227 1027 q 1235 1014 1235 1022 q 1227 1004 1233 1007 l 1200 1004 q 1182 991 1182 1004 l 1182 978 q 1188 967 1182 970 l 1235 967 q 1258 954 1258 967 l 1258 945 q 1246 938 1255 938 l 1194 938 q 1153 970 1171 938 q 1152 991 1152 981 l 1152 1043 q 1183 1091 1152 1080 q 1198 1093 1192 1093 m 1324 1093 l 1354 1093 q 1396 1057 1376 1093 l 1396 1036 q 1385 1015 1396 1025 q 1396 991 1396 996 l 1396 949 q 1385 938 1396 938 l 1377 938 q 1366 949 1366 938 l 1366 986 q 1360 1001 1366 999 l 1331 1001 q 1320 991 1320 1001 l 1320 951 q 1313 938 1320 942 l 1295 938 q 1289 949 1289 941 l 1289 1053 q 1324 1093 1289 1074 m 1529 1093 l 1575 1093 q 1588 1084 1584 1093 l 1588 1072 q 1573 1064 1585 1064 l 1519 1064 q 1513 1049 1513 1061 l 1513 1040 q 1527 1027 1513 1027 l 1558 1027 q 1566 1014 1566 1022 q 1558 1004 1564 1007 l 1531 1004 q 1513 991 1513 1004 l 1513 978 q 1519 967 1513 970 l 1566 967 q 1588 954 1588 967 l 1588 945 q 1577 938 1586 938 l 1524 938 q 1484 970 1501 938 q 1482 991 1482 981 l 1482 1043 q 1514 1091 1482 1080 q 1529 1093 1523 1093 m 1664 1093 l 1711 1093 q 1726 1082 1726 1093 l 1726 1074 q 1703 1064 1722 1064 l 1656 1064 q 1650 1053 1650 1061 l 1650 1041 q 1661 1030 1650 1030 l 1677 1030 q 1727 1002 1721 1030 l 1727 964 q 1677 938 1727 943 l 1634 938 q 1619 956 1620 938 q 1627 965 1622 962 l 1681 965 q 1695 972 1693 965 l 1695 996 q 1684 1002 1692 1002 l 1656 1002 q 1619 1027 1619 1009 q 1617 1038 1617 1029 l 1617 1048 q 1630 1083 1617 1083 q 1664 1093 1648 1093 m 1320 1057 l 1320 1035 q 1326 1030 1320 1032 l 1360 1030 q 1366 1041 1366 1032 l 1366 1049 q 1352 1065 1366 1065 l 1337 1065 q 1320 1057 1324 1065 m 288 1054 l 288 977 q 303 965 288 965 l 319 965 q 334 977 334 965 l 334 1057 q 327 1064 334 1060 l 298 1064 q 288 1054 288 1064 m 419 1054 l 419 977 q 433 965 419 965 l 450 965 q 464 977 464 965 l 464 1057 q 458 1064 464 1060 l 429 1064 q 419 1054 419 1064 m 549 1059 l 549 972 q 555 967 549 970 l 590 967 q 596 978 596 970 l 596 1053 q 590 1064 596 1061 l 555 1064 q 549 1059 552 1064 m 1435 967 l 1440 967 q 1453 954 1453 967 l 1453 946 q 1440 938 1449 938 l 1435 938 q 1422 946 1426 938 l 1422 959 q 1435 967 1426 967 m 216 -65 q 240 -78 240 -72 l 240 -81 q 203 -215 214 -215 q 165 -178 165 -203 l 161 -174 q 146 -218 156 -174 l 140 -220 q 106 -194 122 -220 q 79 -89 106 -186 l 79 -83 q 95 -73 85 -73 l 100 -73 q 123 -134 106 -77 l 127 -134 q 143 -87 139 -91 l 148 -87 q 185 -134 174 -87 l 189 -136 q 210 -68 194 -136 q 216 -65 213 -65 m 296 -65 l 319 -65 q 366 -102 349 -65 l 366 -174 q 340 -213 366 -199 q 319 -220 340 -218 l 298 -220 q 256 -186 276 -220 l 256 -105 q 296 -65 256 -80 m 427 -65 l 450 -65 q 496 -102 480 -65 l 496 -174 q 471 -213 496 -199 q 450 -220 471 -218 l 429 -220 q 387 -186 407 -220 l 387 -105 q 427 -65 387 -80 m 535 -65 l 585 -65 q 625 -96 604 -65 q 627 -110 627 -104 l 627 -176 q 587 -220 627 -206 l 532 -220 q 519 -207 519 -220 l 519 -78 q 535 -65 519 -65 m 721 -65 q 758 -94 736 -65 l 758 -102 q 748 -106 756 -106 l 743 -106 q 722 -94 735 -106 l 688 -94 q 682 -109 682 -96 l 682 -180 q 688 -191 682 -188 l 722 -191 l 739 -176 l 743 -176 q 760 -184 755 -176 l 760 -187 q 721 -220 760 -203 l 693 -220 q 651 -186 670 -220 l 651 -115 q 690 -65 651 -78 l 721 -65 m 802 -65 q 814 -78 814 -66 l 814 -180 q 830 -193 814 -193 l 845 -193 q 859 -186 857 -193 l 859 -92 q 874 -65 859 -65 q 890 -78 890 -65 l 890 -181 q 853 -220 890 -203 l 825 -220 q 785 -187 805 -220 q 783 -163 783 -174 l 783 -92 q 800 -65 783 -65 l 802 -65 m 924 -65 l 1003 -65 q 1016 -78 1016 -65 l 1016 -83 q 994 -96 1016 -96 q 979 -100 979 -96 l 979 -203 q 970 -220 979 -216 l 955 -220 q 948 -213 952 -220 l 948 -115 q 937 -96 948 -96 l 921 -96 q 906 -81 906 -94 q 924 -65 906 -65 m 1042 -65 l 1121 -65 q 1134 -78 1134 -65 l 1134 -83 q 1111 -96 1134 -96 q 1097 -100 1097 -96 l 1097 -203 q 1088 -220 1097 -216 l 1072 -220 q 1066 -213 1069 -220 l 1066 -115 q 1055 -96 1066 -96 l 1038 -96 q 1024 -81 1024 -94 q 1042 -65 1024 -65 m 1198 -65 l 1245 -65 q 1258 -73 1254 -65 l 1258 -86 q 1242 -94 1254 -94 l 1188 -94 q 1182 -109 1182 -96 l 1182 -118 q 1196 -131 1182 -131 l 1227 -131 q 1235 -144 1235 -136 q 1227 -153 1233 -151 l 1200 -153 q 1182 -167 1182 -153 l 1182 -180 q 1188 -191 1182 -188 l 1235 -191 q 1258 -203 1258 -191 l 1258 -213 q 1246 -220 1255 -220 l 1194 -220 q 1153 -187 1171 -220 q 1152 -167 1152 -177 l 1152 -115 q 1183 -66 1152 -77 q 1198 -65 1192 -65 m 1324 -65 l 1354 -65 q 1396 -100 1376 -65 l 1396 -121 q 1385 -142 1396 -132 q 1396 -167 1396 -161 l 1396 -208 q 1385 -220 1396 -220 l 1377 -220 q 1366 -208 1366 -220 l 1366 -172 q 1360 -157 1366 -159 l 1331 -157 q 1320 -167 1320 -157 l 1320 -207 q 1313 -220 1320 -216 l 1295 -220 q 1289 -208 1289 -217 l 1289 -105 q 1324 -65 1289 -84 m 1529 -65 l 1575 -65 q 1588 -73 1584 -65 l 1588 -86 q 1573 -94 1585 -94 l 1519 -94 q 1513 -109 1513 -96 l 1513 -118 q 1527 -131 1513 -131 l 1558 -131 q 1566 -144 1566 -136 q 1558 -153 1564 -151 l 1531 -153 q 1513 -167 1513 -153 l 1513 -180 q 1519 -191 1513 -188 l 1566 -191 q 1588 -203 1588 -191 l 1588 -213 q 1577 -220 1586 -220 l 1524 -220 q 1484 -187 1501 -220 q 1482 -167 1482 -177 l 1482 -115 q 1514 -66 1482 -77 q 1529 -65 1523 -65 m 1664 -65 l 1711 -65 q 1726 -76 1726 -65 l 1726 -84 q 1703 -94 1722 -94 l 1656 -94 q 1650 -105 1650 -96 l 1650 -117 q 1661 -127 1650 -127 l 1677 -127 q 1727 -155 1721 -127 l 1727 -194 q 1677 -220 1727 -215 l 1634 -220 q 1619 -202 1620 -220 q 1627 -193 1622 -195 l 1681 -193 q 1695 -186 1693 -193 l 1695 -161 q 1684 -155 1692 -155 l 1656 -155 q 1619 -131 1619 -149 q 1617 -120 1617 -129 l 1617 -110 q 1630 -75 1617 -75 q 1664 -65 1648 -65 m 1320 -100 l 1320 -123 q 1326 -127 1320 -125 l 1360 -127 q 1366 -117 1366 -125 l 1366 -109 q 1352 -92 1366 -92 l 1337 -92 q 1320 -100 1324 -92 m 288 -104 l 288 -181 q 303 -193 288 -193 l 319 -193 q 334 -181 334 -193 l 334 -100 q 327 -94 334 -98 l 298 -94 q 288 -104 288 -94 m 419 -104 l 419 -181 q 433 -193 419 -193 l 450 -193 q 464 -181 464 -193 l 464 -100 q 458 -94 464 -98 l 429 -94 q 419 -104 419 -94 m 549 -99 l 549 -186 q 555 -191 549 -188 l 590 -191 q 596 -180 596 -188 l 596 -105 q 590 -94 596 -96 l 555 -94 q 549 -99 552 -94 m 1435 -191 l 1440 -191 q 1453 -203 1453 -191 l 1453 -212 q 1440 -220 1449 -220 l 1435 -220 q 1422 -212 1426 -220 l 1422 -199 q 1435 -191 1426 -191 z "},"\\":{"ha":386,"x_min":0,"x_max":0,"o":""},"]":{"ha":514,"x_min":0,"x_max":0,"o":""},"^":{"ha":688,"x_min":0,"x_max":0,"o":""},"_":{"ha":694,"x_min":0,"x_max":0,"o":""},"`":{"ha":249,"x_min":18,"x_max":243,"o":"m 73 1113 l 106 1124 q 180 1088 161 1143 l 218 972 q 176 874 243 897 l 155 867 q 82 903 100 849 l 36 1040 q 73 1113 18 1095 z "},"a":{"ha":837,"x_min":75,"x_max":775,"o":"m 346 972 l 514 972 q 747 785 621 972 l 775 467 q 757 317 757 361 l 757 94 q 663 0 757 0 l 654 0 q 579 47 603 0 l 579 309 q 505 401 579 401 l 346 401 q 280 336 280 401 l 280 94 q 186 0 280 0 l 178 0 q 102 47 127 0 l 102 290 q 75 486 102 330 q 102 673 102 621 l 102 757 q 271 953 102 831 q 346 972 305 972 m 280 729 l 280 626 q 346 561 280 561 l 505 561 q 579 654 579 561 l 579 701 q 505 794 579 794 l 346 794 q 280 729 280 794 z "},"b":{"ha":827,"x_min":81,"x_max":753,"o":"m 501 970 q 744 784 609 970 l 753 728 l 753 644 q 632 504 753 557 l 632 486 q 734 401 632 467 q 753 327 753 367 l 753 243 q 529 0 753 116 l 334 0 q 91 186 214 0 q 81 233 81 202 l 81 709 q 315 970 81 876 l 501 970 m 268 728 l 268 635 q 334 569 268 569 l 501 569 q 567 635 567 569 l 567 728 q 501 793 567 793 l 334 793 q 268 728 268 793 m 268 336 l 268 243 q 334 177 268 177 l 501 177 q 567 243 567 177 l 567 336 q 501 401 567 401 l 334 401 q 268 336 268 401 z "},"c":{"ha":827,"x_min":88,"x_max":761,"o":"m 509 972 q 751 785 617 972 l 751 747 q 686 710 736 710 l 649 710 q 536 794 606 710 l 340 794 q 275 729 275 794 l 275 243 q 340 178 275 178 l 509 178 q 621 271 545 178 l 686 271 q 761 205 761 262 q 555 9 761 132 q 509 0 540 0 l 340 0 q 98 178 231 0 q 88 224 88 193 l 88 710 q 321 972 88 875 l 509 972 z "},"d":{"ha":827,"x_min":81,"x_max":754,"o":"m 175 972 l 502 972 q 736 804 601 972 q 754 729 754 770 l 754 233 q 521 0 754 105 l 175 0 q 81 94 81 0 l 81 878 q 175 972 81 972 m 269 729 l 269 243 q 334 178 269 178 l 502 178 q 568 243 568 178 l 568 729 q 502 794 568 794 l 334 794 q 269 729 269 794 z "},"e":{"ha":848,"x_min":88,"x_max":751,"o":"m 340 972 l 659 972 q 751 897 751 972 l 751 869 q 659 794 751 794 l 340 794 q 275 729 275 794 l 275 626 q 340 561 275 561 l 528 561 q 602 467 602 561 q 528 411 583 411 l 350 411 q 275 364 299 411 l 275 243 q 340 178 275 178 l 659 178 q 751 84 751 178 l 751 75 q 677 0 751 0 l 340 0 q 98 187 225 0 q 88 262 88 223 l 88 710 q 222 935 88 844 q 340 972 279 966 z "},"f":{"ha":824,"x_min":81,"x_max":744,"o":"m 334 970 l 650 970 q 744 896 744 970 l 744 868 q 650 793 744 793 l 334 793 q 268 728 268 793 l 268 625 q 334 560 268 560 l 520 560 q 595 467 595 560 q 520 410 575 410 l 342 410 q 268 364 292 410 l 268 94 q 175 0 268 0 q 81 94 81 0 l 81 709 q 226 939 81 840 q 334 970 280 972 z "},"g":{"ha":831,"x_min":81,"x_max":764,"o":"m 652 972 q 745 897 745 972 l 745 869 q 652 794 745 794 l 334 794 q 269 729 269 794 l 269 243 q 334 178 269 178 l 511 178 q 576 243 576 178 l 576 336 q 427 411 576 411 q 399 477 399 446 l 399 495 q 474 570 399 570 l 530 570 q 764 411 764 520 l 764 178 q 680 56 764 96 q 502 0 588 0 l 334 0 q 91 187 222 0 q 81 262 81 223 l 81 729 q 306 972 81 856 l 652 972 z "},"h":{"ha":837,"x_min":88,"x_max":762,"o":"m 182 974 q 275 880 275 974 l 275 637 q 341 571 275 571 l 509 571 q 575 637 575 571 l 575 880 q 669 974 575 974 q 762 880 762 974 l 762 94 q 669 0 762 0 q 575 94 575 0 l 575 337 q 509 403 575 403 l 341 403 q 275 337 275 403 l 275 94 q 182 0 275 0 q 88 94 88 0 l 88 880 q 182 974 88 974 z "},"i":{"ha":380,"x_min":88,"x_max":296,"o":"m 237 970 l 267 970 q 296 911 296 960 l 296 99 q 197 0 296 0 l 187 0 q 88 129 88 0 l 88 723 q 237 970 88 889 z "},"j":{"ha":691,"x_min":18,"x_max":630,"o":"m 535 972 q 630 877 630 972 l 630 238 q 401 0 630 117 l 306 0 q 41 176 163 0 q 20 248 18 209 q 115 324 20 324 l 125 324 q 230 200 230 324 q 287 181 261 181 l 373 181 q 439 248 439 181 l 439 877 q 535 972 439 972 z "},"k":{"ha":804,"x_min":75,"x_max":737,"o":"m 168 970 q 261 924 240 970 l 261 588 q 308 513 261 537 l 485 513 q 551 578 551 513 l 551 877 q 644 970 551 970 l 653 970 q 737 905 737 970 l 737 597 q 663 448 737 539 l 663 429 q 737 298 737 332 l 737 47 q 663 0 713 0 l 644 0 q 551 94 551 0 l 551 271 q 485 336 551 336 l 336 336 q 261 243 261 336 l 261 47 q 186 0 237 0 l 168 0 q 75 94 75 0 l 75 877 q 168 970 75 970 z "},"l":{"ha":677,"x_min":68,"x_max":647,"o":"m 142 972 l 180 972 q 255 897 255 972 l 255 243 q 320 178 255 178 l 554 178 q 647 75 647 178 q 554 0 647 0 l 348 0 q 68 205 186 0 l 68 897 q 142 972 68 972 z "},"m":{"ha":918,"x_min":81,"x_max":848,"o":"m 324 972 q 465 916 338 972 q 614 972 591 972 q 848 785 701 972 l 848 47 q 754 0 824 0 q 661 94 661 0 l 661 729 q 605 794 661 794 q 558 729 558 781 l 558 75 q 465 0 558 0 q 371 75 371 0 l 371 729 q 315 794 371 794 q 269 729 269 781 l 269 94 q 165 0 269 0 q 81 94 81 0 l 81 739 q 296 972 81 854 l 324 972 z "},"n":{"ha":829,"x_min":88,"x_max":761,"o":"m 659 972 l 667 972 q 761 878 761 972 l 761 271 q 583 47 761 114 l 574 47 q 331 411 541 68 l 294 411 l 284 364 l 284 103 q 191 0 284 0 q 88 94 88 0 l 88 729 q 256 935 88 841 l 275 935 q 509 570 331 881 l 528 561 l 555 561 l 565 608 l 565 878 q 659 972 565 972 z "},"o":{"ha":824,"x_min":75,"x_max":755,"o":"m 504 970 q 747 784 612 970 q 755 700 755 733 l 755 261 q 635 75 755 138 q 467 0 587 0 l 336 0 q 84 177 233 0 l 75 233 l 75 728 q 298 970 75 852 l 504 970 m 271 728 l 271 243 q 336 177 271 177 l 494 177 q 560 243 560 177 l 560 728 q 494 793 560 793 l 336 793 q 271 728 271 793 z "},"p":{"ha":848,"x_min":88,"x_max":770,"o":"m 509 972 q 761 776 616 972 l 770 720 l 770 626 q 546 393 770 509 l 350 393 q 284 327 284 393 l 284 94 q 182 0 284 0 q 88 94 88 0 l 88 729 q 313 972 88 854 l 509 972 m 284 729 l 284 635 q 350 570 284 570 l 509 570 q 574 635 574 570 l 574 729 q 509 794 574 794 l 350 794 q 284 729 284 794 z "},"q":{"ha":835,"x_min":81,"x_max":764,"o":"m 511 972 q 754 785 619 972 l 764 729 l 764 233 q 680 75 764 174 l 680 65 q 699 0 699 5 q 595 -75 661 -75 l 568 -75 q 455 0 505 0 l 371 0 q 91 178 229 0 q 81 262 81 228 l 81 729 q 306 972 81 854 l 511 972 m 277 729 l 277 243 q 334 178 277 178 q 427 262 359 178 q 568 346 568 319 l 568 729 q 502 794 568 794 l 343 794 q 277 729 277 794 z "},"r":{"ha":829,"x_min":95,"x_max":770,"o":"m 511 972 q 762 777 618 972 l 770 722 l 770 629 q 696 481 770 568 l 762 370 q 770 296 770 334 l 770 92 q 696 0 770 0 l 650 0 q 576 92 576 0 l 576 333 q 511 398 576 398 l 354 398 q 290 333 290 398 l 290 72 q 243 -2 290 22 l 160 -2 q 95 81 95 -2 l 95 731 q 317 972 95 855 l 511 972 m 290 731 l 290 639 q 354 574 290 574 l 511 574 q 576 639 576 574 l 576 731 q 437 805 576 805 l 428 805 q 290 731 290 805 z "},"s":{"ha":844,"x_min":88,"x_max":769,"o":"m 349 970 l 686 970 q 760 896 760 970 l 760 886 q 648 793 760 793 l 349 793 q 284 728 284 793 l 284 644 q 349 578 284 578 l 480 578 q 760 439 716 556 q 769 392 769 423 l 769 168 q 498 0 769 48 l 191 0 q 98 102 98 0 q 191 177 98 177 l 508 177 q 574 243 574 177 l 574 336 q 508 401 574 401 l 331 401 q 88 578 88 449 l 88 765 q 163 914 88 873 q 349 970 276 970 z "},"t":{"ha":742,"x_min":27,"x_max":705,"o":"m 121 970 l 630 970 q 705 895 705 970 l 705 857 q 630 782 705 782 l 536 782 q 470 716 470 782 l 470 85 q 404 0 470 0 l 347 0 q 281 85 281 0 l 281 716 q 216 782 281 782 l 121 782 q 27 876 27 782 q 121 970 27 970 z "},"u":{"ha":829,"x_min":88,"x_max":751,"o":"m 182 970 q 275 877 275 970 l 275 243 q 340 177 275 177 l 498 177 q 564 243 564 177 l 564 849 q 648 970 564 970 l 657 970 q 751 877 751 970 l 751 243 q 555 9 751 135 l 498 0 l 340 0 q 98 186 231 0 q 88 271 88 237 l 88 849 q 172 970 88 970 l 182 970 z "},"v":{"ha":769,"x_min":41,"x_max":739,"o":"m 142 972 l 203 972 q 324 516 229 972 l 345 516 q 527 931 395 562 l 557 951 l 577 951 q 739 830 739 898 q 405 0 451 37 l 375 0 q 171 6 273 -16 q 41 931 41 808 q 142 972 83 972 z "},"w":{"ha":1075,"x_min":27,"x_max":1048,"o":"m 881 972 l 901 972 q 1048 864 1048 932 q 832 39 861 39 l 812 29 q 587 255 587 97 l 547 294 q 459 20 510 273 l 420 0 q 204 216 204 58 q 27 854 27 804 q 155 923 60 923 l 165 923 q 302 550 197 923 l 332 530 q 420 825 358 578 l 439 834 l 449 834 q 694 540 633 834 l 724 520 q 852 952 757 520 l 881 972 z "},"x":{"ha":720,"x_min":27,"x_max":688,"o":"m 538 972 q 688 842 593 956 l 688 812 q 518 491 688 788 q 508 461 508 471 l 678 140 q 548 0 678 94 l 538 0 q 378 180 481 0 q 348 191 358 191 q 218 30 324 191 l 197 30 q 47 180 47 87 q 187 461 157 374 l 187 471 q 27 781 187 497 l 27 791 q 187 942 113 942 q 317 772 225 939 q 348 751 348 762 q 498 951 388 755 l 538 972 z "},"y":{"ha":731,"x_min":27,"x_max":697,"o":"m 75 972 l 140 972 q 216 849 216 972 l 216 689 q 282 623 216 623 l 442 623 q 509 689 509 623 l 509 897 q 555 972 509 947 l 621 972 q 697 878 697 972 l 697 717 q 499 453 697 567 q 461 378 461 413 l 461 75 q 386 0 461 0 l 357 0 q 263 113 263 0 l 263 406 q 27 651 27 593 l 27 897 q 75 972 27 947 z "},"z":{"ha":829,"x_min":88,"x_max":747,"o":"m 161 970 l 564 970 q 729 797 671 970 l 729 787 q 372 229 729 760 l 372 211 q 427 183 381 183 l 674 183 q 747 138 724 183 l 747 46 q 674 0 724 0 l 271 0 q 106 201 146 0 l 464 732 l 464 760 q 409 787 454 787 l 161 787 q 88 879 88 787 q 161 970 88 970 z "},"{":{"ha":688,"x_min":0,"x_max":0,"o":""},"|":{"ha":688,"x_min":0,"x_max":0,"o":""},"}":{"ha":688,"x_min":0,"x_max":0,"o":""},"~":{"ha":688,"x_min":0,"x_max":0,"o":""},"":{"ha":456,"x_min":130,"x_max":323,"o":"m 249 0 l 212 0 q 138 74 138 0 l 138 637 q 213 711 139 712 l 250 711 q 323 619 323 711 l 323 74 q 249 0 323 0 m 241 795 l 203 795 q 130 869 130 795 l 130 897 q 203 970 130 970 l 241 970 q 315 897 315 970 l 315 869 q 241 795 315 795 z "},"":{"ha":772,"x_min":0,"x_max":0,"o":""},"":{"ha":1805,"x_min":54,"x_max":1729,"o":"m 243 870 q 342 793 284 870 l 342 771 q 317 758 338 758 l 304 758 q 248 793 283 758 l 157 793 q 140 754 140 787 l 140 564 q 157 534 140 541 l 248 534 l 291 573 l 304 573 q 347 551 337 573 l 347 543 q 243 457 347 502 l 170 457 q 58 547 109 457 l 58 736 q 162 870 58 836 l 243 870 m 408 870 l 433 870 q 472 784 472 870 l 472 736 q 511 720 477 720 l 553 720 q 593 749 593 720 l 593 848 q 614 870 593 854 l 640 870 q 674 836 674 870 l 674 758 q 584 642 674 702 q 575 616 575 628 l 575 491 q 553 457 575 468 l 524 457 q 489 500 489 457 l 489 625 q 386 749 386 707 l 386 827 q 408 870 386 861 m 829 870 l 894 870 q 1006 784 953 870 q 1010 732 1010 753 q 958 668 1010 702 l 958 659 q 1010 582 1010 628 l 1010 577 q 903 457 1010 492 l 829 457 q 722 551 763 457 l 722 771 q 829 870 722 831 m 1200 870 l 1324 870 q 1359 848 1348 870 l 1359 814 q 1316 793 1350 793 l 1174 793 q 1156 754 1156 787 l 1156 728 q 1196 694 1156 694 l 1277 694 q 1299 659 1299 682 q 1277 633 1293 642 l 1204 633 q 1156 599 1156 633 l 1156 564 q 1174 534 1156 541 l 1299 534 q 1359 500 1359 534 l 1359 474 q 1329 457 1352 457 l 1187 457 q 1079 543 1127 457 q 1075 599 1075 571 l 1075 736 q 1161 866 1075 838 q 1200 870 1184 870 m 1535 870 l 1617 870 q 1729 775 1675 870 l 1729 720 q 1699 663 1727 690 q 1729 599 1729 612 l 1729 487 q 1699 457 1729 457 l 1678 457 q 1647 487 1647 457 l 1647 586 q 1630 625 1647 619 l 1553 625 q 1527 599 1527 625 l 1527 491 q 1506 457 1527 468 l 1458 457 q 1441 487 1441 464 l 1441 762 q 1535 870 1441 820 m 1527 775 l 1527 715 q 1540 702 1527 709 l 1630 702 q 1647 732 1647 709 l 1647 754 q 1609 797 1647 797 l 1570 797 q 1527 775 1537 797 m 804 780 l 804 715 q 821 698 804 709 l 898 698 q 928 736 928 698 l 928 762 q 911 793 928 786 l 817 793 q 804 780 810 793 m 804 612 l 804 547 q 842 530 809 530 l 885 530 q 928 564 928 530 l 928 595 q 894 629 928 629 l 833 629 q 804 612 810 629 m 101 399 l 308 399 q 342 366 342 399 l 342 353 q 283 319 342 319 q 245 306 245 319 l 245 35 q 224 -7 245 3 l 181 -7 q 164 10 174 -7 l 164 268 q 135 319 164 319 l 92 319 q 54 357 54 324 q 101 399 54 399 m 465 399 q 477 387 471 399 l 477 27 q 444 -7 477 -7 l 431 -7 q 389 69 389 -7 l 389 264 q 452 399 389 369 l 465 399 m 566 399 l 774 399 q 808 366 808 399 l 808 353 q 749 319 808 319 q 710 306 710 319 l 710 35 q 689 -7 710 3 l 647 -7 q 630 10 640 -7 l 630 268 q 600 319 630 319 l 558 319 q 520 357 520 324 q 566 399 520 399 m 876 399 l 1083 399 q 1117 366 1117 399 l 1117 353 q 1057 319 1117 319 q 1019 306 1019 319 l 1019 35 q 998 -7 1019 3 l 956 -7 q 939 10 949 -7 l 939 268 q 909 319 939 319 l 867 319 q 829 357 829 324 q 876 399 829 399 m 1189 399 l 1206 399 q 1235 382 1228 399 l 1235 99 q 1252 69 1235 76 l 1341 69 q 1400 31 1400 69 l 1400 14 q 1367 -7 1390 -7 l 1269 -7 q 1155 90 1196 -7 l 1155 357 q 1189 399 1155 399 m 1569 399 l 1692 399 q 1726 378 1715 399 l 1726 345 q 1684 323 1716 323 l 1544 323 q 1527 285 1527 317 l 1527 260 q 1565 226 1527 226 l 1646 226 q 1667 192 1667 214 q 1646 167 1661 174 l 1574 167 q 1527 133 1527 167 l 1527 99 q 1544 69 1527 76 l 1667 69 q 1726 35 1726 69 l 1726 10 q 1697 -7 1719 -7 l 1557 -7 q 1451 77 1498 -7 q 1447 133 1447 106 l 1447 268 q 1531 395 1447 367 q 1569 399 1554 399 m 216 1093 q 240 1080 240 1086 l 240 1077 q 203 943 214 943 q 165 980 165 954 l 161 983 q 146 939 156 983 l 140 938 q 106 964 122 938 q 79 1069 106 971 l 79 1075 q 95 1084 85 1084 l 100 1084 q 123 1023 106 1081 l 127 1023 q 143 1070 139 1067 l 148 1070 q 185 1023 174 1070 l 189 1022 q 210 1090 194 1022 q 216 1093 213 1093 m 296 1093 l 319 1093 q 366 1056 349 1093 l 366 983 q 340 945 366 958 q 319 938 340 939 l 298 938 q 256 972 276 938 l 256 1053 q 296 1093 256 1078 m 427 1093 l 450 1093 q 496 1056 480 1093 l 496 983 q 471 945 496 958 q 450 938 471 939 l 429 938 q 387 972 407 938 l 387 1053 q 427 1093 387 1078 m 535 1093 l 585 1093 q 625 1062 604 1093 q 627 1048 627 1053 l 627 981 q 587 938 627 951 l 532 938 q 519 951 519 938 l 519 1080 q 535 1093 519 1093 m 721 1093 q 758 1064 736 1093 l 758 1056 q 748 1051 756 1051 l 743 1051 q 722 1064 735 1051 l 688 1064 q 682 1049 682 1061 l 682 978 q 688 967 682 970 l 722 967 l 739 981 l 743 981 q 760 973 755 981 l 760 970 q 721 938 760 955 l 693 938 q 651 972 670 938 l 651 1043 q 690 1093 651 1080 l 721 1093 m 802 1093 q 814 1080 814 1092 l 814 978 q 830 965 814 965 l 845 965 q 859 972 857 965 l 859 1065 q 874 1093 859 1093 q 890 1080 890 1093 l 890 977 q 853 938 890 954 l 825 938 q 785 970 805 938 q 783 994 783 984 l 783 1065 q 800 1093 783 1093 l 802 1093 m 924 1093 l 1003 1093 q 1016 1080 1016 1093 l 1016 1075 q 994 1062 1016 1062 q 979 1057 979 1062 l 979 954 q 970 938 979 941 l 955 938 q 948 945 952 938 l 948 1043 q 937 1062 948 1062 l 921 1062 q 906 1077 906 1064 q 924 1093 906 1093 m 1042 1093 l 1121 1093 q 1134 1080 1134 1093 l 1134 1075 q 1111 1062 1134 1062 q 1097 1057 1097 1062 l 1097 954 q 1088 938 1097 941 l 1072 938 q 1066 945 1069 938 l 1066 1043 q 1055 1062 1066 1062 l 1038 1062 q 1024 1077 1024 1064 q 1042 1093 1024 1093 m 1198 1093 l 1245 1093 q 1258 1084 1254 1093 l 1258 1072 q 1242 1064 1254 1064 l 1188 1064 q 1182 1049 1182 1061 l 1182 1040 q 1196 1027 1182 1027 l 1227 1027 q 1235 1014 1235 1022 q 1227 1004 1233 1007 l 1200 1004 q 1182 991 1182 1004 l 1182 978 q 1188 967 1182 970 l 1235 967 q 1258 954 1258 967 l 1258 945 q 1246 938 1255 938 l 1194 938 q 1153 970 1171 938 q 1152 991 1152 981 l 1152 1043 q 1183 1091 1152 1080 q 1198 1093 1192 1093 m 1324 1093 l 1354 1093 q 1396 1057 1376 1093 l 1396 1036 q 1385 1015 1396 1025 q 1396 991 1396 996 l 1396 949 q 1385 938 1396 938 l 1377 938 q 1366 949 1366 938 l 1366 986 q 1360 1001 1366 999 l 1331 1001 q 1320 991 1320 1001 l 1320 951 q 1313 938 1320 942 l 1295 938 q 1289 949 1289 941 l 1289 1053 q 1324 1093 1289 1074 m 1529 1093 l 1575 1093 q 1588 1084 1584 1093 l 1588 1072 q 1573 1064 1585 1064 l 1519 1064 q 1513 1049 1513 1061 l 1513 1040 q 1527 1027 1513 1027 l 1558 1027 q 1566 1014 1566 1022 q 1558 1004 1564 1007 l 1531 1004 q 1513 991 1513 1004 l 1513 978 q 1519 967 1513 970 l 1566 967 q 1588 954 1588 967 l 1588 945 q 1577 938 1586 938 l 1524 938 q 1484 970 1501 938 q 1482 991 1482 981 l 1482 1043 q 1514 1091 1482 1080 q 1529 1093 1523 1093 m 1664 1093 l 1711 1093 q 1726 1082 1726 1093 l 1726 1074 q 1703 1064 1722 1064 l 1656 1064 q 1650 1053 1650 1061 l 1650 1041 q 1661 1030 1650 1030 l 1677 1030 q 1727 1002 1721 1030 l 1727 964 q 1677 938 1727 943 l 1634 938 q 1619 956 1620 938 q 1627 965 1622 962 l 1681 965 q 1695 972 1693 965 l 1695 996 q 1684 1002 1692 1002 l 1656 1002 q 1619 1027 1619 1009 q 1617 1038 1617 1029 l 1617 1048 q 1630 1083 1617 1083 q 1664 1093 1648 1093 m 1320 1057 l 1320 1035 q 1326 1030 1320 1032 l 1360 1030 q 1366 1041 1366 1032 l 1366 1049 q 1352 1065 1366 1065 l 1337 1065 q 1320 1057 1324 1065 m 288 1054 l 288 977 q 303 965 288 965 l 319 965 q 334 977 334 965 l 334 1057 q 327 1064 334 1060 l 298 1064 q 288 1054 288 1064 m 419 1054 l 419 977 q 433 965 419 965 l 450 965 q 464 977 464 965 l 464 1057 q 458 1064 464 1060 l 429 1064 q 419 1054 419 1064 m 549 1059 l 549 972 q 555 967 549 970 l 590 967 q 596 978 596 970 l 596 1053 q 590 1064 596 1061 l 555 1064 q 549 1059 552 1064 m 1435 967 l 1440 967 q 1453 954 1453 967 l 1453 946 q 1440 938 1449 938 l 1435 938 q 1422 946 1426 938 l 1422 959 q 1435 967 1426 967 m 216 -65 q 240 -78 240 -72 l 240 -81 q 203 -215 214 -215 q 165 -178 165 -203 l 161 -174 q 146 -218 156 -174 l 140 -220 q 106 -194 122 -220 q 79 -89 106 -186 l 79 -83 q 95 -73 85 -73 l 100 -73 q 123 -134 106 -77 l 127 -134 q 143 -87 139 -91 l 148 -87 q 185 -134 174 -87 l 189 -136 q 210 -68 194 -136 q 216 -65 213 -65 m 296 -65 l 319 -65 q 366 -102 349 -65 l 366 -174 q 340 -213 366 -199 q 319 -220 340 -218 l 298 -220 q 256 -186 276 -220 l 256 -105 q 296 -65 256 -80 m 427 -65 l 450 -65 q 496 -102 480 -65 l 496 -174 q 471 -213 496 -199 q 450 -220 471 -218 l 429 -220 q 387 -186 407 -220 l 387 -105 q 427 -65 387 -80 m 535 -65 l 585 -65 q 625 -96 604 -65 q 627 -110 627 -104 l 627 -176 q 587 -220 627 -206 l 532 -220 q 519 -207 519 -220 l 519 -78 q 535 -65 519 -65 m 721 -65 q 758 -94 736 -65 l 758 -102 q 748 -106 756 -106 l 743 -106 q 722 -94 735 -106 l 688 -94 q 682 -109 682 -96 l 682 -180 q 688 -191 682 -188 l 722 -191 l 739 -176 l 743 -176 q 760 -184 755 -176 l 760 -187 q 721 -220 760 -203 l 693 -220 q 651 -186 670 -220 l 651 -115 q 690 -65 651 -78 l 721 -65 m 802 -65 q 814 -78 814 -66 l 814 -180 q 830 -193 814 -193 l 845 -193 q 859 -186 857 -193 l 859 -92 q 874 -65 859 -65 q 890 -78 890 -65 l 890 -181 q 853 -220 890 -203 l 825 -220 q 785 -187 805 -220 q 783 -163 783 -174 l 783 -92 q 800 -65 783 -65 l 802 -65 m 924 -65 l 1003 -65 q 1016 -78 1016 -65 l 1016 -83 q 994 -96 1016 -96 q 979 -100 979 -96 l 979 -203 q 970 -220 979 -216 l 955 -220 q 948 -213 952 -220 l 948 -115 q 937 -96 948 -96 l 921 -96 q 906 -81 906 -94 q 924 -65 906 -65 m 1042 -65 l 1121 -65 q 1134 -78 1134 -65 l 1134 -83 q 1111 -96 1134 -96 q 1097 -100 1097 -96 l 1097 -203 q 1088 -220 1097 -216 l 1072 -220 q 1066 -213 1069 -220 l 1066 -115 q 1055 -96 1066 -96 l 1038 -96 q 1024 -81 1024 -94 q 1042 -65 1024 -65 m 1198 -65 l 1245 -65 q 1258 -73 1254 -65 l 1258 -86 q 1242 -94 1254 -94 l 1188 -94 q 1182 -109 1182 -96 l 1182 -118 q 1196 -131 1182 -131 l 1227 -131 q 1235 -144 1235 -136 q 1227 -153 1233 -151 l 1200 -153 q 1182 -167 1182 -153 l 1182 -180 q 1188 -191 1182 -188 l 1235 -191 q 1258 -203 1258 -191 l 1258 -213 q 1246 -220 1255 -220 l 1194 -220 q 1153 -187 1171 -220 q 1152 -167 1152 -177 l 1152 -115 q 1183 -66 1152 -77 q 1198 -65 1192 -65 m 1324 -65 l 1354 -65 q 1396 -100 1376 -65 l 1396 -121 q 1385 -142 1396 -132 q 1396 -167 1396 -161 l 1396 -208 q 1385 -220 1396 -220 l 1377 -220 q 1366 -208 1366 -220 l 1366 -172 q 1360 -157 1366 -159 l 1331 -157 q 1320 -167 1320 -157 l 1320 -207 q 1313 -220 1320 -216 l 1295 -220 q 1289 -208 1289 -217 l 1289 -105 q 1324 -65 1289 -84 m 1529 -65 l 1575 -65 q 1588 -73 1584 -65 l 1588 -86 q 1573 -94 1585 -94 l 1519 -94 q 1513 -109 1513 -96 l 1513 -118 q 1527 -131 1513 -131 l 1558 -131 q 1566 -144 1566 -136 q 1558 -153 1564 -151 l 1531 -153 q 1513 -167 1513 -153 l 1513 -180 q 1519 -191 1513 -188 l 1566 -191 q 1588 -203 1588 -191 l 1588 -213 q 1577 -220 1586 -220 l 1524 -220 q 1484 -187 1501 -220 q 1482 -167 1482 -177 l 1482 -115 q 1514 -66 1482 -77 q 1529 -65 1523 -65 m 1664 -65 l 1711 -65 q 1726 -76 1726 -65 l 1726 -84 q 1703 -94 1722 -94 l 1656 -94 q 1650 -105 1650 -96 l 1650 -117 q 1661 -127 1650 -127 l 1677 -127 q 1727 -155 1721 -127 l 1727 -194 q 1677 -220 1727 -215 l 1634 -220 q 1619 -202 1620 -220 q 1627 -193 1622 -195 l 1681 -193 q 1695 -186 1693 -193 l 1695 -161 q 1684 -155 1692 -155 l 1656 -155 q 1619 -131 1619 -149 q 1617 -120 1617 -129 l 1617 -110 q 1630 -75 1617 -75 q 1664 -65 1648 -65 m 1320 -100 l 1320 -123 q 1326 -127 1320 -125 l 1360 -127 q 1366 -117 1366 -125 l 1366 -109 q 1352 -92 1366 -92 l 1337 -92 q 1320 -100 1324 -92 m 288 -104 l 288 -181 q 303 -193 288 -193 l 319 -193 q 334 -181 334 -193 l 334 -100 q 327 -94 334 -98 l 298 -94 q 288 -104 288 -94 m 419 -104 l 419 -181 q 433 -193 419 -193 l 450 -193 q 464 -181 464 -193 l 464 -100 q 458 -94 464 -98 l 429 -94 q 419 -104 419 -94 m 549 -99 l 549 -186 q 555 -191 549 -188 l 590 -191 q 596 -180 596 -188 l 596 -105 q 590 -94 596 -96 l 555 -94 q 549 -99 552 -94 m 1435 -191 l 1440 -191 q 1453 -203 1453 -191 l 1453 -212 q 1440 -220 1449 -220 l 1435 -220 q 1422 -212 1426 -220 l 1422 -199 q 1435 -191 1426 -191 z "},"":{"ha":688,"x_min":0,"x_max":0,"o":""},"":{"ha":856,"x_min":0,"x_max":0,"o":""},"":{"ha":688,"x_min":0,"x_max":0,"o":""},"":{"ha":688,"x_min":0,"x_max":0,"o":""},"":{"ha":694,"x_min":0,"x_max":0,"o":""},"":{"ha":1805,"x_min":54,"x_max":1729,"o":"m 243 870 q 342 793 284 870 l 342 771 q 317 758 338 758 l 304 758 q 248 793 283 758 l 157 793 q 140 754 140 787 l 140 564 q 157 534 140 541 l 248 534 l 291 573 l 304 573 q 347 551 337 573 l 347 543 q 243 457 347 502 l 170 457 q 58 547 109 457 l 58 736 q 162 870 58 836 l 243 870 m 408 870 l 433 870 q 472 784 472 870 l 472 736 q 511 720 477 720 l 553 720 q 593 749 593 720 l 593 848 q 614 870 593 854 l 640 870 q 674 836 674 870 l 674 758 q 584 642 674 702 q 575 616 575 628 l 575 491 q 553 457 575 468 l 524 457 q 489 500 489 457 l 489 625 q 386 749 386 707 l 386 827 q 408 870 386 861 m 829 870 l 894 870 q 1006 784 953 870 q 1010 732 1010 753 q 958 668 1010 702 l 958 659 q 1010 582 1010 628 l 1010 577 q 903 457 1010 492 l 829 457 q 722 551 763 457 l 722 771 q 829 870 722 831 m 1200 870 l 1324 870 q 1359 848 1348 870 l 1359 814 q 1316 793 1350 793 l 1174 793 q 1156 754 1156 787 l 1156 728 q 1196 694 1156 694 l 1277 694 q 1299 659 1299 682 q 1277 633 1293 642 l 1204 633 q 1156 599 1156 633 l 1156 564 q 1174 534 1156 541 l 1299 534 q 1359 500 1359 534 l 1359 474 q 1329 457 1352 457 l 1187 457 q 1079 543 1127 457 q 1075 599 1075 571 l 1075 736 q 1161 866 1075 838 q 1200 870 1184 870 m 1535 870 l 1617 870 q 1729 775 1675 870 l 1729 720 q 1699 663 1727 690 q 1729 599 1729 612 l 1729 487 q 1699 457 1729 457 l 1678 457 q 1647 487 1647 457 l 1647 586 q 1630 625 1647 619 l 1553 625 q 1527 599 1527 625 l 1527 491 q 1506 457 1527 468 l 1458 457 q 1441 487 1441 464 l 1441 762 q 1535 870 1441 820 m 1527 775 l 1527 715 q 1540 702 1527 709 l 1630 702 q 1647 732 1647 709 l 1647 754 q 1609 797 1647 797 l 1570 797 q 1527 775 1537 797 m 804 780 l 804 715 q 821 698 804 709 l 898 698 q 928 736 928 698 l 928 762 q 911 793 928 786 l 817 793 q 804 780 810 793 m 804 612 l 804 547 q 842 530 809 530 l 885 530 q 928 564 928 530 l 928 595 q 894 629 928 629 l 833 629 q 804 612 810 629 m 101 399 l 308 399 q 342 366 342 399 l 342 353 q 283 319 342 319 q 245 306 245 319 l 245 35 q 224 -7 245 3 l 181 -7 q 164 10 174 -7 l 164 268 q 135 319 164 319 l 92 319 q 54 357 54 324 q 101 399 54 399 m 465 399 q 477 387 471 399 l 477 27 q 444 -7 477 -7 l 431 -7 q 389 69 389 -7 l 389 264 q 452 399 389 369 l 465 399 m 566 399 l 774 399 q 808 366 808 399 l 808 353 q 749 319 808 319 q 710 306 710 319 l 710 35 q 689 -7 710 3 l 647 -7 q 630 10 640 -7 l 630 268 q 600 319 630 319 l 558 319 q 520 357 520 324 q 566 399 520 399 m 876 399 l 1083 399 q 1117 366 1117 399 l 1117 353 q 1057 319 1117 319 q 1019 306 1019 319 l 1019 35 q 998 -7 1019 3 l 956 -7 q 939 10 949 -7 l 939 268 q 909 319 939 319 l 867 319 q 829 357 829 324 q 876 399 829 399 m 1189 399 l 1206 399 q 1235 382 1228 399 l 1235 99 q 1252 69 1235 76 l 1341 69 q 1400 31 1400 69 l 1400 14 q 1367 -7 1390 -7 l 1269 -7 q 1155 90 1196 -7 l 1155 357 q 1189 399 1155 399 m 1569 399 l 1692 399 q 1726 378 1715 399 l 1726 345 q 1684 323 1716 323 l 1544 323 q 1527 285 1527 317 l 1527 260 q 1565 226 1527 226 l 1646 226 q 1667 192 1667 214 q 1646 167 1661 174 l 1574 167 q 1527 133 1527 167 l 1527 99 q 1544 69 1527 76 l 1667 69 q 1726 35 1726 69 l 1726 10 q 1697 -7 1719 -7 l 1557 -7 q 1451 77 1498 -7 q 1447 133 1447 106 l 1447 268 q 1531 395 1447 367 q 1569 399 1554 399 m 216 1093 q 240 1080 240 1086 l 240 1077 q 203 943 214 943 q 165 980 165 954 l 161 983 q 146 939 156 983 l 140 938 q 106 964 122 938 q 79 1069 106 971 l 79 1075 q 95 1084 85 1084 l 100 1084 q 123 1023 106 1081 l 127 1023 q 143 1070 139 1067 l 148 1070 q 185 1023 174 1070 l 189 1022 q 210 1090 194 1022 q 216 1093 213 1093 m 296 1093 l 319 1093 q 366 1056 349 1093 l 366 983 q 340 945 366 958 q 319 938 340 939 l 298 938 q 256 972 276 938 l 256 1053 q 296 1093 256 1078 m 427 1093 l 450 1093 q 496 1056 480 1093 l 496 983 q 471 945 496 958 q 450 938 471 939 l 429 938 q 387 972 407 938 l 387 1053 q 427 1093 387 1078 m 535 1093 l 585 1093 q 625 1062 604 1093 q 627 1048 627 1053 l 627 981 q 587 938 627 951 l 532 938 q 519 951 519 938 l 519 1080 q 535 1093 519 1093 m 721 1093 q 758 1064 736 1093 l 758 1056 q 748 1051 756 1051 l 743 1051 q 722 1064 735 1051 l 688 1064 q 682 1049 682 1061 l 682 978 q 688 967 682 970 l 722 967 l 739 981 l 743 981 q 760 973 755 981 l 760 970 q 721 938 760 955 l 693 938 q 651 972 670 938 l 651 1043 q 690 1093 651 1080 l 721 1093 m 802 1093 q 814 1080 814 1092 l 814 978 q 830 965 814 965 l 845 965 q 859 972 857 965 l 859 1065 q 874 1093 859 1093 q 890 1080 890 1093 l 890 977 q 853 938 890 954 l 825 938 q 785 970 805 938 q 783 994 783 984 l 783 1065 q 800 1093 783 1093 l 802 1093 m 924 1093 l 1003 1093 q 1016 1080 1016 1093 l 1016 1075 q 994 1062 1016 1062 q 979 1057 979 1062 l 979 954 q 970 938 979 941 l 955 938 q 948 945 952 938 l 948 1043 q 937 1062 948 1062 l 921 1062 q 906 1077 906 1064 q 924 1093 906 1093 m 1042 1093 l 1121 1093 q 1134 1080 1134 1093 l 1134 1075 q 1111 1062 1134 1062 q 1097 1057 1097 1062 l 1097 954 q 1088 938 1097 941 l 1072 938 q 1066 945 1069 938 l 1066 1043 q 1055 1062 1066 1062 l 1038 1062 q 1024 1077 1024 1064 q 1042 1093 1024 1093 m 1198 1093 l 1245 1093 q 1258 1084 1254 1093 l 1258 1072 q 1242 1064 1254 1064 l 1188 1064 q 1182 1049 1182 1061 l 1182 1040 q 1196 1027 1182 1027 l 1227 1027 q 1235 1014 1235 1022 q 1227 1004 1233 1007 l 1200 1004 q 1182 991 1182 1004 l 1182 978 q 1188 967 1182 970 l 1235 967 q 1258 954 1258 967 l 1258 945 q 1246 938 1255 938 l 1194 938 q 1153 970 1171 938 q 1152 991 1152 981 l 1152 1043 q 1183 1091 1152 1080 q 1198 1093 1192 1093 m 1324 1093 l 1354 1093 q 1396 1057 1376 1093 l 1396 1036 q 1385 1015 1396 1025 q 1396 991 1396 996 l 1396 949 q 1385 938 1396 938 l 1377 938 q 1366 949 1366 938 l 1366 986 q 1360 1001 1366 999 l 1331 1001 q 1320 991 1320 1001 l 1320 951 q 1313 938 1320 942 l 1295 938 q 1289 949 1289 941 l 1289 1053 q 1324 1093 1289 1074 m 1529 1093 l 1575 1093 q 1588 1084 1584 1093 l 1588 1072 q 1573 1064 1585 1064 l 1519 1064 q 1513 1049 1513 1061 l 1513 1040 q 1527 1027 1513 1027 l 1558 1027 q 1566 1014 1566 1022 q 1558 1004 1564 1007 l 1531 1004 q 1513 991 1513 1004 l 1513 978 q 1519 967 1513 970 l 1566 967 q 1588 954 1588 967 l 1588 945 q 1577 938 1586 938 l 1524 938 q 1484 970 1501 938 q 1482 991 1482 981 l 1482 1043 q 1514 1091 1482 1080 q 1529 1093 1523 1093 m 1664 1093 l 1711 1093 q 1726 1082 1726 1093 l 1726 1074 q 1703 1064 1722 1064 l 1656 1064 q 1650 1053 1650 1061 l 1650 1041 q 1661 1030 1650 1030 l 1677 1030 q 1727 1002 1721 1030 l 1727 964 q 1677 938 1727 943 l 1634 938 q 1619 956 1620 938 q 1627 965 1622 962 l 1681 965 q 1695 972 1693 965 l 1695 996 q 1684 1002 1692 1002 l 1656 1002 q 1619 1027 1619 1009 q 1617 1038 1617 1029 l 1617 1048 q 1630 1083 1617 1083 q 1664 1093 1648 1093 m 1320 1057 l 1320 1035 q 1326 1030 1320 1032 l 1360 1030 q 1366 1041 1366 1032 l 1366 1049 q 1352 1065 1366 1065 l 1337 1065 q 1320 1057 1324 1065 m 288 1054 l 288 977 q 303 965 288 965 l 319 965 q 334 977 334 965 l 334 1057 q 327 1064 334 1060 l 298 1064 q 288 1054 288 1064 m 419 1054 l 419 977 q 433 965 419 965 l 450 965 q 464 977 464 965 l 464 1057 q 458 1064 464 1060 l 429 1064 q 419 1054 419 1064 m 549 1059 l 549 972 q 555 967 549 970 l 590 967 q 596 978 596 970 l 596 1053 q 590 1064 596 1061 l 555 1064 q 549 1059 552 1064 m 1435 967 l 1440 967 q 1453 954 1453 967 l 1453 946 q 1440 938 1449 938 l 1435 938 q 1422 946 1426 938 l 1422 959 q 1435 967 1426 967 m 216 -65 q 240 -78 240 -72 l 240 -81 q 203 -215 214 -215 q 165 -178 165 -203 l 161 -174 q 146 -218 156 -174 l 140 -220 q 106 -194 122 -220 q 79 -89 106 -186 l 79 -83 q 95 -73 85 -73 l 100 -73 q 123 -134 106 -77 l 127 -134 q 143 -87 139 -91 l 148 -87 q 185 -134 174 -87 l 189 -136 q 210 -68 194 -136 q 216 -65 213 -65 m 296 -65 l 319 -65 q 366 -102 349 -65 l 366 -174 q 340 -213 366 -199 q 319 -220 340 -218 l 298 -220 q 256 -186 276 -220 l 256 -105 q 296 -65 256 -80 m 427 -65 l 450 -65 q 496 -102 480 -65 l 496 -174 q 471 -213 496 -199 q 450 -220 471 -218 l 429 -220 q 387 -186 407 -220 l 387 -105 q 427 -65 387 -80 m 535 -65 l 585 -65 q 625 -96 604 -65 q 627 -110 627 -104 l 627 -176 q 587 -220 627 -206 l 532 -220 q 519 -207 519 -220 l 519 -78 q 535 -65 519 -65 m 721 -65 q 758 -94 736 -65 l 758 -102 q 748 -106 756 -106 l 743 -106 q 722 -94 735 -106 l 688 -94 q 682 -109 682 -96 l 682 -180 q 688 -191 682 -188 l 722 -191 l 739 -176 l 743 -176 q 760 -184 755 -176 l 760 -187 q 721 -220 760 -203 l 693 -220 q 651 -186 670 -220 l 651 -115 q 690 -65 651 -78 l 721 -65 m 802 -65 q 814 -78 814 -66 l 814 -180 q 830 -193 814 -193 l 845 -193 q 859 -186 857 -193 l 859 -92 q 874 -65 859 -65 q 890 -78 890 -65 l 890 -181 q 853 -220 890 -203 l 825 -220 q 785 -187 805 -220 q 783 -163 783 -174 l 783 -92 q 800 -65 783 -65 l 802 -65 m 924 -65 l 1003 -65 q 1016 -78 1016 -65 l 1016 -83 q 994 -96 1016 -96 q 979 -100 979 -96 l 979 -203 q 970 -220 979 -216 l 955 -220 q 948 -213 952 -220 l 948 -115 q 937 -96 948 -96 l 921 -96 q 906 -81 906 -94 q 924 -65 906 -65 m 1042 -65 l 1121 -65 q 1134 -78 1134 -65 l 1134 -83 q 1111 -96 1134 -96 q 1097 -100 1097 -96 l 1097 -203 q 1088 -220 1097 -216 l 1072 -220 q 1066 -213 1069 -220 l 1066 -115 q 1055 -96 1066 -96 l 1038 -96 q 1024 -81 1024 -94 q 1042 -65 1024 -65 m 1198 -65 l 1245 -65 q 1258 -73 1254 -65 l 1258 -86 q 1242 -94 1254 -94 l 1188 -94 q 1182 -109 1182 -96 l 1182 -118 q 1196 -131 1182 -131 l 1227 -131 q 1235 -144 1235 -136 q 1227 -153 1233 -151 l 1200 -153 q 1182 -167 1182 -153 l 1182 -180 q 1188 -191 1182 -188 l 1235 -191 q 1258 -203 1258 -191 l 1258 -213 q 1246 -220 1255 -220 l 1194 -220 q 1153 -187 1171 -220 q 1152 -167 1152 -177 l 1152 -115 q 1183 -66 1152 -77 q 1198 -65 1192 -65 m 1324 -65 l 1354 -65 q 1396 -100 1376 -65 l 1396 -121 q 1385 -142 1396 -132 q 1396 -167 1396 -161 l 1396 -208 q 1385 -220 1396 -220 l 1377 -220 q 1366 -208 1366 -220 l 1366 -172 q 1360 -157 1366 -159 l 1331 -157 q 1320 -167 1320 -157 l 1320 -207 q 1313 -220 1320 -216 l 1295 -220 q 1289 -208 1289 -217 l 1289 -105 q 1324 -65 1289 -84 m 1529 -65 l 1575 -65 q 1588 -73 1584 -65 l 1588 -86 q 1573 -94 1585 -94 l 1519 -94 q 1513 -109 1513 -96 l 1513 -118 q 1527 -131 1513 -131 l 1558 -131 q 1566 -144 1566 -136 q 1558 -153 1564 -151 l 1531 -153 q 1513 -167 1513 -153 l 1513 -180 q 1519 -191 1513 -188 l 1566 -191 q 1588 -203 1588 -191 l 1588 -213 q 1577 -220 1586 -220 l 1524 -220 q 1484 -187 1501 -220 q 1482 -167 1482 -177 l 1482 -115 q 1514 -66 1482 -77 q 1529 -65 1523 -65 m 1664 -65 l 1711 -65 q 1726 -76 1726 -65 l 1726 -84 q 1703 -94 1722 -94 l 1656 -94 q 1650 -105 1650 -96 l 1650 -117 q 1661 -127 1650 -127 l 1677 -127 q 1727 -155 1721 -127 l 1727 -194 q 1677 -220 1727 -215 l 1634 -220 q 1619 -202 1620 -220 q 1627 -193 1622 -195 l 1681 -193 q 1695 -186 1693 -193 l 1695 -161 q 1684 -155 1692 -155 l 1656 -155 q 1619 -131 1619 -149 q 1617 -120 1617 -129 l 1617 -110 q 1630 -75 1617 -75 q 1664 -65 1648 -65 m 1320 -100 l 1320 -123 q 1326 -127 1320 -125 l 1360 -127 q 1366 -117 1366 -125 l 1366 -109 q 1352 -92 1366 -92 l 1337 -92 q 1320 -100 1324 -92 m 288 -104 l 288 -181 q 303 -193 288 -193 l 319 -193 q 334 -181 334 -193 l 334 -100 q 327 -94 334 -98 l 298 -94 q 288 -104 288 -94 m 419 -104 l 419 -181 q 433 -193 419 -193 l 450 -193 q 464 -181 464 -193 l 464 -100 q 458 -94 464 -98 l 429 -94 q 419 -104 419 -94 m 549 -99 l 549 -186 q 555 -191 549 -188 l 590 -191 q 596 -180 596 -188 l 596 -105 q 590 -94 596 -96 l 555 -94 q 549 -99 552 -94 m 1435 -191 l 1440 -191 q 1453 -203 1453 -191 l 1453 -212 q 1440 -220 1449 -220 l 1435 -220 q 1422 -212 1426 -220 l 1422 -199 q 1435 -191 1426 -191 z "},"":{"ha":439,"x_min":0,"x_max":0,"o":""},"":{"ha":640,"x_min":0,"x_max":0,"o":""},"":{"ha":688,"x_min":0,"x_max":0,"o":""},"":{"ha":1805,"x_min":54,"x_max":1729,"o":"m 243 870 q 342 793 284 870 l 342 771 q 317 758 338 758 l 304 758 q 248 793 283 758 l 157 793 q 140 754 140 787 l 140 564 q 157 534 140 541 l 248 534 l 291 573 l 304 573 q 347 551 337 573 l 347 543 q 243 457 347 502 l 170 457 q 58 547 109 457 l 58 736 q 162 870 58 836 l 243 870 m 408 870 l 433 870 q 472 784 472 870 l 472 736 q 511 720 477 720 l 553 720 q 593 749 593 720 l 593 848 q 614 870 593 854 l 640 870 q 674 836 674 870 l 674 758 q 584 642 674 702 q 575 616 575 628 l 575 491 q 553 457 575 468 l 524 457 q 489 500 489 457 l 489 625 q 386 749 386 707 l 386 827 q 408 870 386 861 m 829 870 l 894 870 q 1006 784 953 870 q 1010 732 1010 753 q 958 668 1010 702 l 958 659 q 1010 582 1010 628 l 1010 577 q 903 457 1010 492 l 829 457 q 722 551 763 457 l 722 771 q 829 870 722 831 m 1200 870 l 1324 870 q 1359 848 1348 870 l 1359 814 q 1316 793 1350 793 l 1174 793 q 1156 754 1156 787 l 1156 728 q 1196 694 1156 694 l 1277 694 q 1299 659 1299 682 q 1277 633 1293 642 l 1204 633 q 1156 599 1156 633 l 1156 564 q 1174 534 1156 541 l 1299 534 q 1359 500 1359 534 l 1359 474 q 1329 457 1352 457 l 1187 457 q 1079 543 1127 457 q 1075 599 1075 571 l 1075 736 q 1161 866 1075 838 q 1200 870 1184 870 m 1535 870 l 1617 870 q 1729 775 1675 870 l 1729 720 q 1699 663 1727 690 q 1729 599 1729 612 l 1729 487 q 1699 457 1729 457 l 1678 457 q 1647 487 1647 457 l 1647 586 q 1630 625 1647 619 l 1553 625 q 1527 599 1527 625 l 1527 491 q 1506 457 1527 468 l 1458 457 q 1441 487 1441 464 l 1441 762 q 1535 870 1441 820 m 1527 775 l 1527 715 q 1540 702 1527 709 l 1630 702 q 1647 732 1647 709 l 1647 754 q 1609 797 1647 797 l 1570 797 q 1527 775 1537 797 m 804 780 l 804 715 q 821 698 804 709 l 898 698 q 928 736 928 698 l 928 762 q 911 793 928 786 l 817 793 q 804 780 810 793 m 804 612 l 804 547 q 842 530 809 530 l 885 530 q 928 564 928 530 l 928 595 q 894 629 928 629 l 833 629 q 804 612 810 629 m 101 399 l 308 399 q 342 366 342 399 l 342 353 q 283 319 342 319 q 245 306 245 319 l 245 35 q 224 -7 245 3 l 181 -7 q 164 10 174 -7 l 164 268 q 135 319 164 319 l 92 319 q 54 357 54 324 q 101 399 54 399 m 465 399 q 477 387 471 399 l 477 27 q 444 -7 477 -7 l 431 -7 q 389 69 389 -7 l 389 264 q 452 399 389 369 l 465 399 m 566 399 l 774 399 q 808 366 808 399 l 808 353 q 749 319 808 319 q 710 306 710 319 l 710 35 q 689 -7 710 3 l 647 -7 q 630 10 640 -7 l 630 268 q 600 319 630 319 l 558 319 q 520 357 520 324 q 566 399 520 399 m 876 399 l 1083 399 q 1117 366 1117 399 l 1117 353 q 1057 319 1117 319 q 1019 306 1019 319 l 1019 35 q 998 -7 1019 3 l 956 -7 q 939 10 949 -7 l 939 268 q 909 319 939 319 l 867 319 q 829 357 829 324 q 876 399 829 399 m 1189 399 l 1206 399 q 1235 382 1228 399 l 1235 99 q 1252 69 1235 76 l 1341 69 q 1400 31 1400 69 l 1400 14 q 1367 -7 1390 -7 l 1269 -7 q 1155 90 1196 -7 l 1155 357 q 1189 399 1155 399 m 1569 399 l 1692 399 q 1726 378 1715 399 l 1726 345 q 1684 323 1716 323 l 1544 323 q 1527 285 1527 317 l 1527 260 q 1565 226 1527 226 l 1646 226 q 1667 192 1667 214 q 1646 167 1661 174 l 1574 167 q 1527 133 1527 167 l 1527 99 q 1544 69 1527 76 l 1667 69 q 1726 35 1726 69 l 1726 10 q 1697 -7 1719 -7 l 1557 -7 q 1451 77 1498 -7 q 1447 133 1447 106 l 1447 268 q 1531 395 1447 367 q 1569 399 1554 399 m 216 1093 q 240 1080 240 1086 l 240 1077 q 203 943 214 943 q 165 980 165 954 l 161 983 q 146 939 156 983 l 140 938 q 106 964 122 938 q 79 1069 106 971 l 79 1075 q 95 1084 85 1084 l 100 1084 q 123 1023 106 1081 l 127 1023 q 143 1070 139 1067 l 148 1070 q 185 1023 174 1070 l 189 1022 q 210 1090 194 1022 q 216 1093 213 1093 m 296 1093 l 319 1093 q 366 1056 349 1093 l 366 983 q 340 945 366 958 q 319 938 340 939 l 298 938 q 256 972 276 938 l 256 1053 q 296 1093 256 1078 m 427 1093 l 450 1093 q 496 1056 480 1093 l 496 983 q 471 945 496 958 q 450 938 471 939 l 429 938 q 387 972 407 938 l 387 1053 q 427 1093 387 1078 m 535 1093 l 585 1093 q 625 1062 604 1093 q 627 1048 627 1053 l 627 981 q 587 938 627 951 l 532 938 q 519 951 519 938 l 519 1080 q 535 1093 519 1093 m 721 1093 q 758 1064 736 1093 l 758 1056 q 748 1051 756 1051 l 743 1051 q 722 1064 735 1051 l 688 1064 q 682 1049 682 1061 l 682 978 q 688 967 682 970 l 722 967 l 739 981 l 743 981 q 760 973 755 981 l 760 970 q 721 938 760 955 l 693 938 q 651 972 670 938 l 651 1043 q 690 1093 651 1080 l 721 1093 m 802 1093 q 814 1080 814 1092 l 814 978 q 830 965 814 965 l 845 965 q 859 972 857 965 l 859 1065 q 874 1093 859 1093 q 890 1080 890 1093 l 890 977 q 853 938 890 954 l 825 938 q 785 970 805 938 q 783 994 783 984 l 783 1065 q 800 1093 783 1093 l 802 1093 m 924 1093 l 1003 1093 q 1016 1080 1016 1093 l 1016 1075 q 994 1062 1016 1062 q 979 1057 979 1062 l 979 954 q 970 938 979 941 l 955 938 q 948 945 952 938 l 948 1043 q 937 1062 948 1062 l 921 1062 q 906 1077 906 1064 q 924 1093 906 1093 m 1042 1093 l 1121 1093 q 1134 1080 1134 1093 l 1134 1075 q 1111 1062 1134 1062 q 1097 1057 1097 1062 l 1097 954 q 1088 938 1097 941 l 1072 938 q 1066 945 1069 938 l 1066 1043 q 1055 1062 1066 1062 l 1038 1062 q 1024 1077 1024 1064 q 1042 1093 1024 1093 m 1198 1093 l 1245 1093 q 1258 1084 1254 1093 l 1258 1072 q 1242 1064 1254 1064 l 1188 1064 q 1182 1049 1182 1061 l 1182 1040 q 1196 1027 1182 1027 l 1227 1027 q 1235 1014 1235 1022 q 1227 1004 1233 1007 l 1200 1004 q 1182 991 1182 1004 l 1182 978 q 1188 967 1182 970 l 1235 967 q 1258 954 1258 967 l 1258 945 q 1246 938 1255 938 l 1194 938 q 1153 970 1171 938 q 1152 991 1152 981 l 1152 1043 q 1183 1091 1152 1080 q 1198 1093 1192 1093 m 1324 1093 l 1354 1093 q 1396 1057 1376 1093 l 1396 1036 q 1385 1015 1396 1025 q 1396 991 1396 996 l 1396 949 q 1385 938 1396 938 l 1377 938 q 1366 949 1366 938 l 1366 986 q 1360 1001 1366 999 l 1331 1001 q 1320 991 1320 1001 l 1320 951 q 1313 938 1320 942 l 1295 938 q 1289 949 1289 941 l 1289 1053 q 1324 1093 1289 1074 m 1529 1093 l 1575 1093 q 1588 1084 1584 1093 l 1588 1072 q 1573 1064 1585 1064 l 1519 1064 q 1513 1049 1513 1061 l 1513 1040 q 1527 1027 1513 1027 l 1558 1027 q 1566 1014 1566 1022 q 1558 1004 1564 1007 l 1531 1004 q 1513 991 1513 1004 l 1513 978 q 1519 967 1513 970 l 1566 967 q 1588 954 1588 967 l 1588 945 q 1577 938 1586 938 l 1524 938 q 1484 970 1501 938 q 1482 991 1482 981 l 1482 1043 q 1514 1091 1482 1080 q 1529 1093 1523 1093 m 1664 1093 l 1711 1093 q 1726 1082 1726 1093 l 1726 1074 q 1703 1064 1722 1064 l 1656 1064 q 1650 1053 1650 1061 l 1650 1041 q 1661 1030 1650 1030 l 1677 1030 q 1727 1002 1721 1030 l 1727 964 q 1677 938 1727 943 l 1634 938 q 1619 956 1620 938 q 1627 965 1622 962 l 1681 965 q 1695 972 1693 965 l 1695 996 q 1684 1002 1692 1002 l 1656 1002 q 1619 1027 1619 1009 q 1617 1038 1617 1029 l 1617 1048 q 1630 1083 1617 1083 q 1664 1093 1648 1093 m 1320 1057 l 1320 1035 q 1326 1030 1320 1032 l 1360 1030 q 1366 1041 1366 1032 l 1366 1049 q 1352 1065 1366 1065 l 1337 1065 q 1320 1057 1324 1065 m 288 1054 l 288 977 q 303 965 288 965 l 319 965 q 334 977 334 965 l 334 1057 q 327 1064 334 1060 l 298 1064 q 288 1054 288 1064 m 419 1054 l 419 977 q 433 965 419 965 l 450 965 q 464 977 464 965 l 464 1057 q 458 1064 464 1060 l 429 1064 q 419 1054 419 1064 m 549 1059 l 549 972 q 555 967 549 970 l 590 967 q 596 978 596 970 l 596 1053 q 590 1064 596 1061 l 555 1064 q 549 1059 552 1064 m 1435 967 l 1440 967 q 1453 954 1453 967 l 1453 946 q 1440 938 1449 938 l 1435 938 q 1422 946 1426 938 l 1422 959 q 1435 967 1426 967 m 216 -65 q 240 -78 240 -72 l 240 -81 q 203 -215 214 -215 q 165 -178 165 -203 l 161 -174 q 146 -218 156 -174 l 140 -220 q 106 -194 122 -220 q 79 -89 106 -186 l 79 -83 q 95 -73 85 -73 l 100 -73 q 123 -134 106 -77 l 127 -134 q 143 -87 139 -91 l 148 -87 q 185 -134 174 -87 l 189 -136 q 210 -68 194 -136 q 216 -65 213 -65 m 296 -65 l 319 -65 q 366 -102 349 -65 l 366 -174 q 340 -213 366 -199 q 319 -220 340 -218 l 298 -220 q 256 -186 276 -220 l 256 -105 q 296 -65 256 -80 m 427 -65 l 450 -65 q 496 -102 480 -65 l 496 -174 q 471 -213 496 -199 q 450 -220 471 -218 l 429 -220 q 387 -186 407 -220 l 387 -105 q 427 -65 387 -80 m 535 -65 l 585 -65 q 625 -96 604 -65 q 627 -110 627 -104 l 627 -176 q 587 -220 627 -206 l 532 -220 q 519 -207 519 -220 l 519 -78 q 535 -65 519 -65 m 721 -65 q 758 -94 736 -65 l 758 -102 q 748 -106 756 -106 l 743 -106 q 722 -94 735 -106 l 688 -94 q 682 -109 682 -96 l 682 -180 q 688 -191 682 -188 l 722 -191 l 739 -176 l 743 -176 q 760 -184 755 -176 l 760 -187 q 721 -220 760 -203 l 693 -220 q 651 -186 670 -220 l 651 -115 q 690 -65 651 -78 l 721 -65 m 802 -65 q 814 -78 814 -66 l 814 -180 q 830 -193 814 -193 l 845 -193 q 859 -186 857 -193 l 859 -92 q 874 -65 859 -65 q 890 -78 890 -65 l 890 -181 q 853 -220 890 -203 l 825 -220 q 785 -187 805 -220 q 783 -163 783 -174 l 783 -92 q 800 -65 783 -65 l 802 -65 m 924 -65 l 1003 -65 q 1016 -78 1016 -65 l 1016 -83 q 994 -96 1016 -96 q 979 -100 979 -96 l 979 -203 q 970 -220 979 -216 l 955 -220 q 948 -213 952 -220 l 948 -115 q 937 -96 948 -96 l 921 -96 q 906 -81 906 -94 q 924 -65 906 -65 m 1042 -65 l 1121 -65 q 1134 -78 1134 -65 l 1134 -83 q 1111 -96 1134 -96 q 1097 -100 1097 -96 l 1097 -203 q 1088 -220 1097 -216 l 1072 -220 q 1066 -213 1069 -220 l 1066 -115 q 1055 -96 1066 -96 l 1038 -96 q 1024 -81 1024 -94 q 1042 -65 1024 -65 m 1198 -65 l 1245 -65 q 1258 -73 1254 -65 l 1258 -86 q 1242 -94 1254 -94 l 1188 -94 q 1182 -109 1182 -96 l 1182 -118 q 1196 -131 1182 -131 l 1227 -131 q 1235 -144 1235 -136 q 1227 -153 1233 -151 l 1200 -153 q 1182 -167 1182 -153 l 1182 -180 q 1188 -191 1182 -188 l 1235 -191 q 1258 -203 1258 -191 l 1258 -213 q 1246 -220 1255 -220 l 1194 -220 q 1153 -187 1171 -220 q 1152 -167 1152 -177 l 1152 -115 q 1183 -66 1152 -77 q 1198 -65 1192 -65 m 1324 -65 l 1354 -65 q 1396 -100 1376 -65 l 1396 -121 q 1385 -142 1396 -132 q 1396 -167 1396 -161 l 1396 -208 q 1385 -220 1396 -220 l 1377 -220 q 1366 -208 1366 -220 l 1366 -172 q 1360 -157 1366 -159 l 1331 -157 q 1320 -167 1320 -157 l 1320 -207 q 1313 -220 1320 -216 l 1295 -220 q 1289 -208 1289 -217 l 1289 -105 q 1324 -65 1289 -84 m 1529 -65 l 1575 -65 q 1588 -73 1584 -65 l 1588 -86 q 1573 -94 1585 -94 l 1519 -94 q 1513 -109 1513 -96 l 1513 -118 q 1527 -131 1513 -131 l 1558 -131 q 1566 -144 1566 -136 q 1558 -153 1564 -151 l 1531 -153 q 1513 -167 1513 -153 l 1513 -180 q 1519 -191 1513 -188 l 1566 -191 q 1588 -203 1588 -191 l 1588 -213 q 1577 -220 1586 -220 l 1524 -220 q 1484 -187 1501 -220 q 1482 -167 1482 -177 l 1482 -115 q 1514 -66 1482 -77 q 1529 -65 1523 -65 m 1664 -65 l 1711 -65 q 1726 -76 1726 -65 l 1726 -84 q 1703 -94 1722 -94 l 1656 -94 q 1650 -105 1650 -96 l 1650 -117 q 1661 -127 1650 -127 l 1677 -127 q 1727 -155 1721 -127 l 1727 -194 q 1677 -220 1727 -215 l 1634 -220 q 1619 -202 1620 -220 q 1627 -193 1622 -195 l 1681 -193 q 1695 -186 1693 -193 l 1695 -161 q 1684 -155 1692 -155 l 1656 -155 q 1619 -131 1619 -149 q 1617 -120 1617 -129 l 1617 -110 q 1630 -75 1617 -75 q 1664 -65 1648 -65 m 1320 -100 l 1320 -123 q 1326 -127 1320 -125 l 1360 -127 q 1366 -117 1366 -125 l 1366 -109 q 1352 -92 1366 -92 l 1337 -92 q 1320 -100 1324 -92 m 288 -104 l 288 -181 q 303 -193 288 -193 l 319 -193 q 334 -181 334 -193 l 334 -100 q 327 -94 334 -98 l 298 -94 q 288 -104 288 -94 m 419 -104 l 419 -181 q 433 -193 419 -193 l 450 -193 q 464 -181 464 -193 l 464 -100 q 458 -94 464 -98 l 429 -94 q 419 -104 419 -94 m 549 -99 l 549 -186 q 555 -191 549 -188 l 590 -191 q 596 -180 596 -188 l 596 -105 q 590 -94 596 -96 l 555 -94 q 549 -99 552 -94 m 1435 -191 l 1440 -191 q 1453 -203 1453 -191 l 1453 -212 q 1440 -220 1449 -220 l 1435 -220 q 1422 -212 1426 -220 l 1422 -199 q 1435 -191 1426 -191 z "},"":{"ha":454,"x_min":0,"x_max":0,"o":""},"":{"ha":457,"x_min":0,"x_max":0,"o":""},"":{"ha":688,"x_min":0,"x_max":0,"o":""},"":{"ha":688,"x_min":0,"x_max":0,"o":""},"":{"ha":688,"x_min":0,"x_max":0,"o":""},"":{"ha":249,"x_min":13,"x_max":248,"o":"m 161 1123 l 195 1110 q 227 1036 248 1089 l 182 922 q 87 873 154 848 l 66 882 q 34 956 13 903 l 86 1090 q 161 1123 107 1144 z "},"":{"ha":800,"x_min":0,"x_max":0,"o":""},"":{"ha":694,"x_min":0,"x_max":0,"o":""},"":{"ha":345,"x_min":0,"x_max":0,"o":""},"":{"ha":694,"x_min":0,"x_max":0,"o":""},"":{"ha":688,"x_min":0,"x_max":0,"o":""},"":{"ha":487,"x_min":0,"x_max":0,"o":""},"":{"ha":640,"x_min":0,"x_max":0,"o":""},"":{"ha":1158,"x_min":0,"x_max":0,"o":""},"":{"ha":1332,"x_min":0,"x_max":0,"o":""},"":{"ha":1158,"x_min":0,"x_max":0,"o":""},"":{"ha":793,"x_min":66,"x_max":747,"o":"m 641 -1 l 335 0 q 76 131 170 7 q 66 178 66 146 l 68 400 q 439 575 89 576 l 513 574 q 560 695 545 574 l 597 723 l 671 722 q 736 657 736 722 l 736 546 q 503 398 736 450 l 327 399 q 252 279 253 399 q 326 176 252 177 l 642 175 q 734 82 734 175 q 641 -1 734 -1 m 672 787 l 635 787 q 561 880 561 788 l 561 899 q 635 973 562 973 l 673 972 q 747 899 747 972 l 747 861 q 672 787 746 787 z "},"":{"ha":1044,"x_min":0,"x_max":0,"o":""},"":{"ha":1044,"x_min":0,"x_max":0,"o":""},"":{"ha":1044,"x_min":0,"x_max":0,"o":""},"":{"ha":1044,"x_min":0,"x_max":0,"o":""},"":{"ha":1044,"x_min":0,"x_max":0,"o":""},"":{"ha":1044,"x_min":0,"x_max":0,"o":""},"":{"ha":1436,"x_min":0,"x_max":0,"o":""},"":{"ha":949,"x_min":0,"x_max":0,"o":""},"":{"ha":781,"x_min":0,"x_max":0,"o":""},"":{"ha":781,"x_min":0,"x_max":0,"o":""},"":{"ha":781,"x_min":0,"x_max":0,"o":""},"":{"ha":781,"x_min":0,"x_max":0,"o":""},"":{"ha":446,"x_min":0,"x_max":0,"o":""},"":{"ha":446,"x_min":0,"x_max":0,"o":""},"":{"ha":446,"x_min":0,"x_max":0,"o":""},"":{"ha":446,"x_min":0,"x_max":0,"o":""},"":{"ha":1029,"x_min":0,"x_max":0,"o":""},"":{"ha":1054,"x_min":0,"x_max":0,"o":""},"":{"ha":1095,"x_min":0,"x_max":0,"o":""},"":{"ha":1095,"x_min":0,"x_max":0,"o":""},"":{"ha":1095,"x_min":0,"x_max":0,"o":""},"":{"ha":1095,"x_min":0,"x_max":0,"o":""},"":{"ha":1095,"x_min":0,"x_max":0,"o":""},"":{"ha":688,"x_min":0,"x_max":0,"o":""},"":{"ha":1095,"x_min":0,"x_max":0,"o":""},"":{"ha":1018,"x_min":0,"x_max":0,"o":""},"":{"ha":1018,"x_min":0,"x_max":0,"o":""},"":{"ha":1018,"x_min":0,"x_max":0,"o":""},"":{"ha":1018,"x_min":0,"x_max":0,"o":""},"":{"ha":836,"x_min":0,"x_max":0,"o":""},"":{"ha":760,"x_min":0,"x_max":0,"o":""},"":{"ha":848,"x_min":0,"x_max":0,"o":""},"":{"ha":625,"x_min":0,"x_max":0,"o":""},"":{"ha":625,"x_min":0,"x_max":0,"o":""},"":{"ha":625,"x_min":0,"x_max":0,"o":""},"":{"ha":625,"x_min":0,"x_max":0,"o":""},"":{"ha":625,"x_min":0,"x_max":0,"o":""},"":{"ha":625,"x_min":0,"x_max":0,"o":""},"":{"ha":986,"x_min":0,"x_max":0,"o":""},"":{"ha":614,"x_min":0,"x_max":0,"o":""},"":{"ha":616,"x_min":0,"x_max":0,"o":""},"":{"ha":616,"x_min":0,"x_max":0,"o":""},"":{"ha":616,"x_min":0,"x_max":0,"o":""},"":{"ha":616,"x_min":0,"x_max":0,"o":""},"":{"ha":349,"x_min":0,"x_max":0,"o":""},"":{"ha":349,"x_min":0,"x_max":0,"o":""},"":{"ha":349,"x_min":0,"x_max":0,"o":""},"":{"ha":349,"x_min":0,"x_max":0,"o":""},"":{"ha":772,"x_min":0,"x_max":0,"o":""},"":{"ha":751,"x_min":0,"x_max":0,"o":""},"":{"ha":685,"x_min":0,"x_max":0,"o":""},"":{"ha":685,"x_min":0,"x_max":0,"o":""},"":{"ha":685,"x_min":0,"x_max":0,"o":""},"":{"ha":685,"x_min":0,"x_max":0,"o":""},"":{"ha":685,"x_min":0,"x_max":0,"o":""},"":{"ha":688,"x_min":0,"x_max":0,"o":""},"":{"ha":685,"x_min":0,"x_max":0,"o":""},"":{"ha":718,"x_min":0,"x_max":0,"o":""},"":{"ha":718,"x_min":0,"x_max":0,"o":""},"":{"ha":718,"x_min":0,"x_max":0,"o":""},"":{"ha":718,"x_min":0,"x_max":0,"o":""},"":{"ha":589,"x_min":0,"x_max":0,"o":""},"":{"ha":685,"x_min":0,"x_max":0,"o":""},"":{"ha":589,"x_min":0,"x_max":0,"o":""},"":{"ha":349,"x_min":0,"x_max":0,"o":""},"":{"ha":694,"x_min":0,"x_max":0,"o":""},"":{"ha":694,"x_min":0,"x_max":0,"o":""},"":{"ha":694,"x_min":0,"x_max":0,"o":""},"":{"ha":694,"x_min":0,"x_max":0,"o":""},"":{"ha":694,"x_min":0,"x_max":0,"o":""},"":{"ha":694,"x_min":0,"x_max":0,"o":""},"":{"ha":694,"x_min":0,"x_max":0,"o":""},"":{"ha":694,"x_min":0,"x_max":0,"o":""},"":{"ha":694,"x_min":0,"x_max":0,"o":""},"":{"ha":751,"x_min":0,"x_max":0,"o":""},"":{"ha":1389,"x_min":0,"x_max":0,"o":""},"":{"ha":378,"x_min":0,"x_max":0,"o":""},"":{"ha":378,"x_min":0,"x_max":0,"o":""},"":{"ha":378,"x_min":0,"x_max":0,"o":""},"":{"ha":617,"x_min":0,"x_max":0,"o":""},"":{"ha":617,"x_min":0,"x_max":0,"o":""},"":{"ha":617,"x_min":0,"x_max":0,"o":""},"":{"ha":688,"x_min":0,"x_max":0,"o":""},"":{"ha":688,"x_min":0,"x_max":0,"o":""},"":{"ha":694,"x_min":0,"x_max":0,"o":""},"":{"ha":1389,"x_min":0,"x_max":0,"o":""},"":{"ha":428,"x_min":0,"x_max":0,"o":""},"":{"ha":428,"x_min":0,"x_max":0,"o":""},"":{"ha":232,"x_min":0,"x_max":0,"o":""},"":{"ha":688,"x_min":0,"x_max":0,"o":""},"":{"ha":688,"x_min":0,"x_max":0,"o":""},"":{"ha":1375,"x_min":0,"x_max":0,"o":""},"":{"ha":1805,"x_min":54,"x_max":1729,"o":"m 243 870 q 342 793 284 870 l 342 771 q 317 758 338 758 l 304 758 q 248 793 283 758 l 157 793 q 140 754 140 787 l 140 564 q 157 534 140 541 l 248 534 l 291 573 l 304 573 q 347 551 337 573 l 347 543 q 243 457 347 502 l 170 457 q 58 547 109 457 l 58 736 q 162 870 58 836 l 243 870 m 408 870 l 433 870 q 472 784 472 870 l 472 736 q 511 720 477 720 l 553 720 q 593 749 593 720 l 593 848 q 614 870 593 854 l 640 870 q 674 836 674 870 l 674 758 q 584 642 674 702 q 575 616 575 628 l 575 491 q 553 457 575 468 l 524 457 q 489 500 489 457 l 489 625 q 386 749 386 707 l 386 827 q 408 870 386 861 m 829 870 l 894 870 q 1006 784 953 870 q 1010 732 1010 753 q 958 668 1010 702 l 958 659 q 1010 582 1010 628 l 1010 577 q 903 457 1010 492 l 829 457 q 722 551 763 457 l 722 771 q 829 870 722 831 m 1200 870 l 1324 870 q 1359 848 1348 870 l 1359 814 q 1316 793 1350 793 l 1174 793 q 1156 754 1156 787 l 1156 728 q 1196 694 1156 694 l 1277 694 q 1299 659 1299 682 q 1277 633 1293 642 l 1204 633 q 1156 599 1156 633 l 1156 564 q 1174 534 1156 541 l 1299 534 q 1359 500 1359 534 l 1359 474 q 1329 457 1352 457 l 1187 457 q 1079 543 1127 457 q 1075 599 1075 571 l 1075 736 q 1161 866 1075 838 q 1200 870 1184 870 m 1535 870 l 1617 870 q 1729 775 1675 870 l 1729 720 q 1699 663 1727 690 q 1729 599 1729 612 l 1729 487 q 1699 457 1729 457 l 1678 457 q 1647 487 1647 457 l 1647 586 q 1630 625 1647 619 l 1553 625 q 1527 599 1527 625 l 1527 491 q 1506 457 1527 468 l 1458 457 q 1441 487 1441 464 l 1441 762 q 1535 870 1441 820 m 1527 775 l 1527 715 q 1540 702 1527 709 l 1630 702 q 1647 732 1647 709 l 1647 754 q 1609 797 1647 797 l 1570 797 q 1527 775 1537 797 m 804 780 l 804 715 q 821 698 804 709 l 898 698 q 928 736 928 698 l 928 762 q 911 793 928 786 l 817 793 q 804 780 810 793 m 804 612 l 804 547 q 842 530 809 530 l 885 530 q 928 564 928 530 l 928 595 q 894 629 928 629 l 833 629 q 804 612 810 629 m 101 399 l 308 399 q 342 366 342 399 l 342 353 q 283 319 342 319 q 245 306 245 319 l 245 35 q 224 -7 245 3 l 181 -7 q 164 10 174 -7 l 164 268 q 135 319 164 319 l 92 319 q 54 357 54 324 q 101 399 54 399 m 465 399 q 477 387 471 399 l 477 27 q 444 -7 477 -7 l 431 -7 q 389 69 389 -7 l 389 264 q 452 399 389 369 l 465 399 m 566 399 l 774 399 q 808 366 808 399 l 808 353 q 749 319 808 319 q 710 306 710 319 l 710 35 q 689 -7 710 3 l 647 -7 q 630 10 640 -7 l 630 268 q 600 319 630 319 l 558 319 q 520 357 520 324 q 566 399 520 399 m 876 399 l 1083 399 q 1117 366 1117 399 l 1117 353 q 1057 319 1117 319 q 1019 306 1019 319 l 1019 35 q 998 -7 1019 3 l 956 -7 q 939 10 949 -7 l 939 268 q 909 319 939 319 l 867 319 q 829 357 829 324 q 876 399 829 399 m 1189 399 l 1206 399 q 1235 382 1228 399 l 1235 99 q 1252 69 1235 76 l 1341 69 q 1400 31 1400 69 l 1400 14 q 1367 -7 1390 -7 l 1269 -7 q 1155 90 1196 -7 l 1155 357 q 1189 399 1155 399 m 1569 399 l 1692 399 q 1726 378 1715 399 l 1726 345 q 1684 323 1716 323 l 1544 323 q 1527 285 1527 317 l 1527 260 q 1565 226 1527 226 l 1646 226 q 1667 192 1667 214 q 1646 167 1661 174 l 1574 167 q 1527 133 1527 167 l 1527 99 q 1544 69 1527 76 l 1667 69 q 1726 35 1726 69 l 1726 10 q 1697 -7 1719 -7 l 1557 -7 q 1451 77 1498 -7 q 1447 133 1447 106 l 1447 268 q 1531 395 1447 367 q 1569 399 1554 399 m 216 1093 q 240 1080 240 1086 l 240 1077 q 203 943 214 943 q 165 980 165 954 l 161 983 q 146 939 156 983 l 140 938 q 106 964 122 938 q 79 1069 106 971 l 79 1075 q 95 1084 85 1084 l 100 1084 q 123 1023 106 1081 l 127 1023 q 143 1070 139 1067 l 148 1070 q 185 1023 174 1070 l 189 1022 q 210 1090 194 1022 q 216 1093 213 1093 m 296 1093 l 319 1093 q 366 1056 349 1093 l 366 983 q 340 945 366 958 q 319 938 340 939 l 298 938 q 256 972 276 938 l 256 1053 q 296 1093 256 1078 m 427 1093 l 450 1093 q 496 1056 480 1093 l 496 983 q 471 945 496 958 q 450 938 471 939 l 429 938 q 387 972 407 938 l 387 1053 q 427 1093 387 1078 m 535 1093 l 585 1093 q 625 1062 604 1093 q 627 1048 627 1053 l 627 981 q 587 938 627 951 l 532 938 q 519 951 519 938 l 519 1080 q 535 1093 519 1093 m 721 1093 q 758 1064 736 1093 l 758 1056 q 748 1051 756 1051 l 743 1051 q 722 1064 735 1051 l 688 1064 q 682 1049 682 1061 l 682 978 q 688 967 682 970 l 722 967 l 739 981 l 743 981 q 760 973 755 981 l 760 970 q 721 938 760 955 l 693 938 q 651 972 670 938 l 651 1043 q 690 1093 651 1080 l 721 1093 m 802 1093 q 814 1080 814 1092 l 814 978 q 830 965 814 965 l 845 965 q 859 972 857 965 l 859 1065 q 874 1093 859 1093 q 890 1080 890 1093 l 890 977 q 853 938 890 954 l 825 938 q 785 970 805 938 q 783 994 783 984 l 783 1065 q 800 1093 783 1093 l 802 1093 m 924 1093 l 1003 1093 q 1016 1080 1016 1093 l 1016 1075 q 994 1062 1016 1062 q 979 1057 979 1062 l 979 954 q 970 938 979 941 l 955 938 q 948 945 952 938 l 948 1043 q 937 1062 948 1062 l 921 1062 q 906 1077 906 1064 q 924 1093 906 1093 m 1042 1093 l 1121 1093 q 1134 1080 1134 1093 l 1134 1075 q 1111 1062 1134 1062 q 1097 1057 1097 1062 l 1097 954 q 1088 938 1097 941 l 1072 938 q 1066 945 1069 938 l 1066 1043 q 1055 1062 1066 1062 l 1038 1062 q 1024 1077 1024 1064 q 1042 1093 1024 1093 m 1198 1093 l 1245 1093 q 1258 1084 1254 1093 l 1258 1072 q 1242 1064 1254 1064 l 1188 1064 q 1182 1049 1182 1061 l 1182 1040 q 1196 1027 1182 1027 l 1227 1027 q 1235 1014 1235 1022 q 1227 1004 1233 1007 l 1200 1004 q 1182 991 1182 1004 l 1182 978 q 1188 967 1182 970 l 1235 967 q 1258 954 1258 967 l 1258 945 q 1246 938 1255 938 l 1194 938 q 1153 970 1171 938 q 1152 991 1152 981 l 1152 1043 q 1183 1091 1152 1080 q 1198 1093 1192 1093 m 1324 1093 l 1354 1093 q 1396 1057 1376 1093 l 1396 1036 q 1385 1015 1396 1025 q 1396 991 1396 996 l 1396 949 q 1385 938 1396 938 l 1377 938 q 1366 949 1366 938 l 1366 986 q 1360 1001 1366 999 l 1331 1001 q 1320 991 1320 1001 l 1320 951 q 1313 938 1320 942 l 1295 938 q 1289 949 1289 941 l 1289 1053 q 1324 1093 1289 1074 m 1529 1093 l 1575 1093 q 1588 1084 1584 1093 l 1588 1072 q 1573 1064 1585 1064 l 1519 1064 q 1513 1049 1513 1061 l 1513 1040 q 1527 1027 1513 1027 l 1558 1027 q 1566 1014 1566 1022 q 1558 1004 1564 1007 l 1531 1004 q 1513 991 1513 1004 l 1513 978 q 1519 967 1513 970 l 1566 967 q 1588 954 1588 967 l 1588 945 q 1577 938 1586 938 l 1524 938 q 1484 970 1501 938 q 1482 991 1482 981 l 1482 1043 q 1514 1091 1482 1080 q 1529 1093 1523 1093 m 1664 1093 l 1711 1093 q 1726 1082 1726 1093 l 1726 1074 q 1703 1064 1722 1064 l 1656 1064 q 1650 1053 1650 1061 l 1650 1041 q 1661 1030 1650 1030 l 1677 1030 q 1727 1002 1721 1030 l 1727 964 q 1677 938 1727 943 l 1634 938 q 1619 956 1620 938 q 1627 965 1622 962 l 1681 965 q 1695 972 1693 965 l 1695 996 q 1684 1002 1692 1002 l 1656 1002 q 1619 1027 1619 1009 q 1617 1038 1617 1029 l 1617 1048 q 1630 1083 1617 1083 q 1664 1093 1648 1093 m 1320 1057 l 1320 1035 q 1326 1030 1320 1032 l 1360 1030 q 1366 1041 1366 1032 l 1366 1049 q 1352 1065 1366 1065 l 1337 1065 q 1320 1057 1324 1065 m 288 1054 l 288 977 q 303 965 288 965 l 319 965 q 334 977 334 965 l 334 1057 q 327 1064 334 1060 l 298 1064 q 288 1054 288 1064 m 419 1054 l 419 977 q 433 965 419 965 l 450 965 q 464 977 464 965 l 464 1057 q 458 1064 464 1060 l 429 1064 q 419 1054 419 1064 m 549 1059 l 549 972 q 555 967 549 970 l 590 967 q 596 978 596 970 l 596 1053 q 590 1064 596 1061 l 555 1064 q 549 1059 552 1064 m 1435 967 l 1440 967 q 1453 954 1453 967 l 1453 946 q 1440 938 1449 938 l 1435 938 q 1422 946 1426 938 l 1422 959 q 1435 967 1426 967 m 216 -65 q 240 -78 240 -72 l 240 -81 q 203 -215 214 -215 q 165 -178 165 -203 l 161 -174 q 146 -218 156 -174 l 140 -220 q 106 -194 122 -220 q 79 -89 106 -186 l 79 -83 q 95 -73 85 -73 l 100 -73 q 123 -134 106 -77 l 127 -134 q 143 -87 139 -91 l 148 -87 q 185 -134 174 -87 l 189 -136 q 210 -68 194 -136 q 216 -65 213 -65 m 296 -65 l 319 -65 q 366 -102 349 -65 l 366 -174 q 340 -213 366 -199 q 319 -220 340 -218 l 298 -220 q 256 -186 276 -220 l 256 -105 q 296 -65 256 -80 m 427 -65 l 450 -65 q 496 -102 480 -65 l 496 -174 q 471 -213 496 -199 q 450 -220 471 -218 l 429 -220 q 387 -186 407 -220 l 387 -105 q 427 -65 387 -80 m 535 -65 l 585 -65 q 625 -96 604 -65 q 627 -110 627 -104 l 627 -176 q 587 -220 627 -206 l 532 -220 q 519 -207 519 -220 l 519 -78 q 535 -65 519 -65 m 721 -65 q 758 -94 736 -65 l 758 -102 q 748 -106 756 -106 l 743 -106 q 722 -94 735 -106 l 688 -94 q 682 -109 682 -96 l 682 -180 q 688 -191 682 -188 l 722 -191 l 739 -176 l 743 -176 q 760 -184 755 -176 l 760 -187 q 721 -220 760 -203 l 693 -220 q 651 -186 670 -220 l 651 -115 q 690 -65 651 -78 l 721 -65 m 802 -65 q 814 -78 814 -66 l 814 -180 q 830 -193 814 -193 l 845 -193 q 859 -186 857 -193 l 859 -92 q 874 -65 859 -65 q 890 -78 890 -65 l 890 -181 q 853 -220 890 -203 l 825 -220 q 785 -187 805 -220 q 783 -163 783 -174 l 783 -92 q 800 -65 783 -65 l 802 -65 m 924 -65 l 1003 -65 q 1016 -78 1016 -65 l 1016 -83 q 994 -96 1016 -96 q 979 -100 979 -96 l 979 -203 q 970 -220 979 -216 l 955 -220 q 948 -213 952 -220 l 948 -115 q 937 -96 948 -96 l 921 -96 q 906 -81 906 -94 q 924 -65 906 -65 m 1042 -65 l 1121 -65 q 1134 -78 1134 -65 l 1134 -83 q 1111 -96 1134 -96 q 1097 -100 1097 -96 l 1097 -203 q 1088 -220 1097 -216 l 1072 -220 q 1066 -213 1069 -220 l 1066 -115 q 1055 -96 1066 -96 l 1038 -96 q 1024 -81 1024 -94 q 1042 -65 1024 -65 m 1198 -65 l 1245 -65 q 1258 -73 1254 -65 l 1258 -86 q 1242 -94 1254 -94 l 1188 -94 q 1182 -109 1182 -96 l 1182 -118 q 1196 -131 1182 -131 l 1227 -131 q 1235 -144 1235 -136 q 1227 -153 1233 -151 l 1200 -153 q 1182 -167 1182 -153 l 1182 -180 q 1188 -191 1182 -188 l 1235 -191 q 1258 -203 1258 -191 l 1258 -213 q 1246 -220 1255 -220 l 1194 -220 q 1153 -187 1171 -220 q 1152 -167 1152 -177 l 1152 -115 q 1183 -66 1152 -77 q 1198 -65 1192 -65 m 1324 -65 l 1354 -65 q 1396 -100 1376 -65 l 1396 -121 q 1385 -142 1396 -132 q 1396 -167 1396 -161 l 1396 -208 q 1385 -220 1396 -220 l 1377 -220 q 1366 -208 1366 -220 l 1366 -172 q 1360 -157 1366 -159 l 1331 -157 q 1320 -167 1320 -157 l 1320 -207 q 1313 -220 1320 -216 l 1295 -220 q 1289 -208 1289 -217 l 1289 -105 q 1324 -65 1289 -84 m 1529 -65 l 1575 -65 q 1588 -73 1584 -65 l 1588 -86 q 1573 -94 1585 -94 l 1519 -94 q 1513 -109 1513 -96 l 1513 -118 q 1527 -131 1513 -131 l 1558 -131 q 1566 -144 1566 -136 q 1558 -153 1564 -151 l 1531 -153 q 1513 -167 1513 -153 l 1513 -180 q 1519 -191 1513 -188 l 1566 -191 q 1588 -203 1588 -191 l 1588 -213 q 1577 -220 1586 -220 l 1524 -220 q 1484 -187 1501 -220 q 1482 -167 1482 -177 l 1482 -115 q 1514 -66 1482 -77 q 1529 -65 1523 -65 m 1664 -65 l 1711 -65 q 1726 -76 1726 -65 l 1726 -84 q 1703 -94 1722 -94 l 1656 -94 q 1650 -105 1650 -96 l 1650 -117 q 1661 -127 1650 -127 l 1677 -127 q 1727 -155 1721 -127 l 1727 -194 q 1677 -220 1727 -215 l 1634 -220 q 1619 -202 1620 -220 q 1627 -193 1622 -195 l 1681 -193 q 1695 -186 1693 -193 l 1695 -161 q 1684 -155 1692 -155 l 1656 -155 q 1619 -131 1619 -149 q 1617 -120 1617 -129 l 1617 -110 q 1630 -75 1617 -75 q 1664 -65 1648 -65 m 1320 -100 l 1320 -123 q 1326 -127 1320 -125 l 1360 -127 q 1366 -117 1366 -125 l 1366 -109 q 1352 -92 1366 -92 l 1337 -92 q 1320 -100 1324 -92 m 288 -104 l 288 -181 q 303 -193 288 -193 l 319 -193 q 334 -181 334 -193 l 334 -100 q 327 -94 334 -98 l 298 -94 q 288 -104 288 -94 m 419 -104 l 419 -181 q 433 -193 419 -193 l 450 -193 q 464 -181 464 -193 l 464 -100 q 458 -94 464 -98 l 429 -94 q 419 -104 419 -94 m 549 -99 l 549 -186 q 555 -191 549 -188 l 590 -191 q 596 -180 596 -188 l 596 -105 q 590 -94 596 -96 l 555 -94 q 549 -99 552 -94 m 1435 -191 l 1440 -191 q 1453 -203 1453 -191 l 1453 -212 q 1440 -220 1449 -220 l 1435 -220 q 1422 -212 1426 -220 l 1422 -199 q 1435 -191 1426 -191 z "},"":{"ha":1540,"x_min":0,"x_max":0,"o":""},"":{"ha":1805,"x_min":54,"x_max":1729,"o":"m 243 870 q 342 793 284 870 l 342 771 q 317 758 338 758 l 304 758 q 248 793 283 758 l 157 793 q 140 754 140 787 l 140 564 q 157 534 140 541 l 248 534 l 291 573 l 304 573 q 347 551 337 573 l 347 543 q 243 457 347 502 l 170 457 q 58 547 109 457 l 58 736 q 162 870 58 836 l 243 870 m 408 870 l 433 870 q 472 784 472 870 l 472 736 q 511 720 477 720 l 553 720 q 593 749 593 720 l 593 848 q 614 870 593 854 l 640 870 q 674 836 674 870 l 674 758 q 584 642 674 702 q 575 616 575 628 l 575 491 q 553 457 575 468 l 524 457 q 489 500 489 457 l 489 625 q 386 749 386 707 l 386 827 q 408 870 386 861 m 829 870 l 894 870 q 1006 784 953 870 q 1010 732 1010 753 q 958 668 1010 702 l 958 659 q 1010 582 1010 628 l 1010 577 q 903 457 1010 492 l 829 457 q 722 551 763 457 l 722 771 q 829 870 722 831 m 1200 870 l 1324 870 q 1359 848 1348 870 l 1359 814 q 1316 793 1350 793 l 1174 793 q 1156 754 1156 787 l 1156 728 q 1196 694 1156 694 l 1277 694 q 1299 659 1299 682 q 1277 633 1293 642 l 1204 633 q 1156 599 1156 633 l 1156 564 q 1174 534 1156 541 l 1299 534 q 1359 500 1359 534 l 1359 474 q 1329 457 1352 457 l 1187 457 q 1079 543 1127 457 q 1075 599 1075 571 l 1075 736 q 1161 866 1075 838 q 1200 870 1184 870 m 1535 870 l 1617 870 q 1729 775 1675 870 l 1729 720 q 1699 663 1727 690 q 1729 599 1729 612 l 1729 487 q 1699 457 1729 457 l 1678 457 q 1647 487 1647 457 l 1647 586 q 1630 625 1647 619 l 1553 625 q 1527 599 1527 625 l 1527 491 q 1506 457 1527 468 l 1458 457 q 1441 487 1441 464 l 1441 762 q 1535 870 1441 820 m 1527 775 l 1527 715 q 1540 702 1527 709 l 1630 702 q 1647 732 1647 709 l 1647 754 q 1609 797 1647 797 l 1570 797 q 1527 775 1537 797 m 804 780 l 804 715 q 821 698 804 709 l 898 698 q 928 736 928 698 l 928 762 q 911 793 928 786 l 817 793 q 804 780 810 793 m 804 612 l 804 547 q 842 530 809 530 l 885 530 q 928 564 928 530 l 928 595 q 894 629 928 629 l 833 629 q 804 612 810 629 m 101 399 l 308 399 q 342 366 342 399 l 342 353 q 283 319 342 319 q 245 306 245 319 l 245 35 q 224 -7 245 3 l 181 -7 q 164 10 174 -7 l 164 268 q 135 319 164 319 l 92 319 q 54 357 54 324 q 101 399 54 399 m 465 399 q 477 387 471 399 l 477 27 q 444 -7 477 -7 l 431 -7 q 389 69 389 -7 l 389 264 q 452 399 389 369 l 465 399 m 566 399 l 774 399 q 808 366 808 399 l 808 353 q 749 319 808 319 q 710 306 710 319 l 710 35 q 689 -7 710 3 l 647 -7 q 630 10 640 -7 l 630 268 q 600 319 630 319 l 558 319 q 520 357 520 324 q 566 399 520 399 m 876 399 l 1083 399 q 1117 366 1117 399 l 1117 353 q 1057 319 1117 319 q 1019 306 1019 319 l 1019 35 q 998 -7 1019 3 l 956 -7 q 939 10 949 -7 l 939 268 q 909 319 939 319 l 867 319 q 829 357 829 324 q 876 399 829 399 m 1189 399 l 1206 399 q 1235 382 1228 399 l 1235 99 q 1252 69 1235 76 l 1341 69 q 1400 31 1400 69 l 1400 14 q 1367 -7 1390 -7 l 1269 -7 q 1155 90 1196 -7 l 1155 357 q 1189 399 1155 399 m 1569 399 l 1692 399 q 1726 378 1715 399 l 1726 345 q 1684 323 1716 323 l 1544 323 q 1527 285 1527 317 l 1527 260 q 1565 226 1527 226 l 1646 226 q 1667 192 1667 214 q 1646 167 1661 174 l 1574 167 q 1527 133 1527 167 l 1527 99 q 1544 69 1527 76 l 1667 69 q 1726 35 1726 69 l 1726 10 q 1697 -7 1719 -7 l 1557 -7 q 1451 77 1498 -7 q 1447 133 1447 106 l 1447 268 q 1531 395 1447 367 q 1569 399 1554 399 m 216 1093 q 240 1080 240 1086 l 240 1077 q 203 943 214 943 q 165 980 165 954 l 161 983 q 146 939 156 983 l 140 938 q 106 964 122 938 q 79 1069 106 971 l 79 1075 q 95 1084 85 1084 l 100 1084 q 123 1023 106 1081 l 127 1023 q 143 1070 139 1067 l 148 1070 q 185 1023 174 1070 l 189 1022 q 210 1090 194 1022 q 216 1093 213 1093 m 296 1093 l 319 1093 q 366 1056 349 1093 l 366 983 q 340 945 366 958 q 319 938 340 939 l 298 938 q 256 972 276 938 l 256 1053 q 296 1093 256 1078 m 427 1093 l 450 1093 q 496 1056 480 1093 l 496 983 q 471 945 496 958 q 450 938 471 939 l 429 938 q 387 972 407 938 l 387 1053 q 427 1093 387 1078 m 535 1093 l 585 1093 q 625 1062 604 1093 q 627 1048 627 1053 l 627 981 q 587 938 627 951 l 532 938 q 519 951 519 938 l 519 1080 q 535 1093 519 1093 m 721 1093 q 758 1064 736 1093 l 758 1056 q 748 1051 756 1051 l 743 1051 q 722 1064 735 1051 l 688 1064 q 682 1049 682 1061 l 682 978 q 688 967 682 970 l 722 967 l 739 981 l 743 981 q 760 973 755 981 l 760 970 q 721 938 760 955 l 693 938 q 651 972 670 938 l 651 1043 q 690 1093 651 1080 l 721 1093 m 802 1093 q 814 1080 814 1092 l 814 978 q 830 965 814 965 l 845 965 q 859 972 857 965 l 859 1065 q 874 1093 859 1093 q 890 1080 890 1093 l 890 977 q 853 938 890 954 l 825 938 q 785 970 805 938 q 783 994 783 984 l 783 1065 q 800 1093 783 1093 l 802 1093 m 924 1093 l 1003 1093 q 1016 1080 1016 1093 l 1016 1075 q 994 1062 1016 1062 q 979 1057 979 1062 l 979 954 q 970 938 979 941 l 955 938 q 948 945 952 938 l 948 1043 q 937 1062 948 1062 l 921 1062 q 906 1077 906 1064 q 924 1093 906 1093 m 1042 1093 l 1121 1093 q 1134 1080 1134 1093 l 1134 1075 q 1111 1062 1134 1062 q 1097 1057 1097 1062 l 1097 954 q 1088 938 1097 941 l 1072 938 q 1066 945 1069 938 l 1066 1043 q 1055 1062 1066 1062 l 1038 1062 q 1024 1077 1024 1064 q 1042 1093 1024 1093 m 1198 1093 l 1245 1093 q 1258 1084 1254 1093 l 1258 1072 q 1242 1064 1254 1064 l 1188 1064 q 1182 1049 1182 1061 l 1182 1040 q 1196 1027 1182 1027 l 1227 1027 q 1235 1014 1235 1022 q 1227 1004 1233 1007 l 1200 1004 q 1182 991 1182 1004 l 1182 978 q 1188 967 1182 970 l 1235 967 q 1258 954 1258 967 l 1258 945 q 1246 938 1255 938 l 1194 938 q 1153 970 1171 938 q 1152 991 1152 981 l 1152 1043 q 1183 1091 1152 1080 q 1198 1093 1192 1093 m 1324 1093 l 1354 1093 q 1396 1057 1376 1093 l 1396 1036 q 1385 1015 1396 1025 q 1396 991 1396 996 l 1396 949 q 1385 938 1396 938 l 1377 938 q 1366 949 1366 938 l 1366 986 q 1360 1001 1366 999 l 1331 1001 q 1320 991 1320 1001 l 1320 951 q 1313 938 1320 942 l 1295 938 q 1289 949 1289 941 l 1289 1053 q 1324 1093 1289 1074 m 1529 1093 l 1575 1093 q 1588 1084 1584 1093 l 1588 1072 q 1573 1064 1585 1064 l 1519 1064 q 1513 1049 1513 1061 l 1513 1040 q 1527 1027 1513 1027 l 1558 1027 q 1566 1014 1566 1022 q 1558 1004 1564 1007 l 1531 1004 q 1513 991 1513 1004 l 1513 978 q 1519 967 1513 970 l 1566 967 q 1588 954 1588 967 l 1588 945 q 1577 938 1586 938 l 1524 938 q 1484 970 1501 938 q 1482 991 1482 981 l 1482 1043 q 1514 1091 1482 1080 q 1529 1093 1523 1093 m 1664 1093 l 1711 1093 q 1726 1082 1726 1093 l 1726 1074 q 1703 1064 1722 1064 l 1656 1064 q 1650 1053 1650 1061 l 1650 1041 q 1661 1030 1650 1030 l 1677 1030 q 1727 1002 1721 1030 l 1727 964 q 1677 938 1727 943 l 1634 938 q 1619 956 1620 938 q 1627 965 1622 962 l 1681 965 q 1695 972 1693 965 l 1695 996 q 1684 1002 1692 1002 l 1656 1002 q 1619 1027 1619 1009 q 1617 1038 1617 1029 l 1617 1048 q 1630 1083 1617 1083 q 1664 1093 1648 1093 m 1320 1057 l 1320 1035 q 1326 1030 1320 1032 l 1360 1030 q 1366 1041 1366 1032 l 1366 1049 q 1352 1065 1366 1065 l 1337 1065 q 1320 1057 1324 1065 m 288 1054 l 288 977 q 303 965 288 965 l 319 965 q 334 977 334 965 l 334 1057 q 327 1064 334 1060 l 298 1064 q 288 1054 288 1064 m 419 1054 l 419 977 q 433 965 419 965 l 450 965 q 464 977 464 965 l 464 1057 q 458 1064 464 1060 l 429 1064 q 419 1054 419 1064 m 549 1059 l 549 972 q 555 967 549 970 l 590 967 q 596 978 596 970 l 596 1053 q 590 1064 596 1061 l 555 1064 q 549 1059 552 1064 m 1435 967 l 1440 967 q 1453 954 1453 967 l 1453 946 q 1440 938 1449 938 l 1435 938 q 1422 946 1426 938 l 1422 959 q 1435 967 1426 967 m 216 -65 q 240 -78 240 -72 l 240 -81 q 203 -215 214 -215 q 165 -178 165 -203 l 161 -174 q 146 -218 156 -174 l 140 -220 q 106 -194 122 -220 q 79 -89 106 -186 l 79 -83 q 95 -73 85 -73 l 100 -73 q 123 -134 106 -77 l 127 -134 q 143 -87 139 -91 l 148 -87 q 185 -134 174 -87 l 189 -136 q 210 -68 194 -136 q 216 -65 213 -65 m 296 -65 l 319 -65 q 366 -102 349 -65 l 366 -174 q 340 -213 366 -199 q 319 -220 340 -218 l 298 -220 q 256 -186 276 -220 l 256 -105 q 296 -65 256 -80 m 427 -65 l 450 -65 q 496 -102 480 -65 l 496 -174 q 471 -213 496 -199 q 450 -220 471 -218 l 429 -220 q 387 -186 407 -220 l 387 -105 q 427 -65 387 -80 m 535 -65 l 585 -65 q 625 -96 604 -65 q 627 -110 627 -104 l 627 -176 q 587 -220 627 -206 l 532 -220 q 519 -207 519 -220 l 519 -78 q 535 -65 519 -65 m 721 -65 q 758 -94 736 -65 l 758 -102 q 748 -106 756 -106 l 743 -106 q 722 -94 735 -106 l 688 -94 q 682 -109 682 -96 l 682 -180 q 688 -191 682 -188 l 722 -191 l 739 -176 l 743 -176 q 760 -184 755 -176 l 760 -187 q 721 -220 760 -203 l 693 -220 q 651 -186 670 -220 l 651 -115 q 690 -65 651 -78 l 721 -65 m 802 -65 q 814 -78 814 -66 l 814 -180 q 830 -193 814 -193 l 845 -193 q 859 -186 857 -193 l 859 -92 q 874 -65 859 -65 q 890 -78 890 -65 l 890 -181 q 853 -220 890 -203 l 825 -220 q 785 -187 805 -220 q 783 -163 783 -174 l 783 -92 q 800 -65 783 -65 l 802 -65 m 924 -65 l 1003 -65 q 1016 -78 1016 -65 l 1016 -83 q 994 -96 1016 -96 q 979 -100 979 -96 l 979 -203 q 970 -220 979 -216 l 955 -220 q 948 -213 952 -220 l 948 -115 q 937 -96 948 -96 l 921 -96 q 906 -81 906 -94 q 924 -65 906 -65 m 1042 -65 l 1121 -65 q 1134 -78 1134 -65 l 1134 -83 q 1111 -96 1134 -96 q 1097 -100 1097 -96 l 1097 -203 q 1088 -220 1097 -216 l 1072 -220 q 1066 -213 1069 -220 l 1066 -115 q 1055 -96 1066 -96 l 1038 -96 q 1024 -81 1024 -94 q 1042 -65 1024 -65 m 1198 -65 l 1245 -65 q 1258 -73 1254 -65 l 1258 -86 q 1242 -94 1254 -94 l 1188 -94 q 1182 -109 1182 -96 l 1182 -118 q 1196 -131 1182 -131 l 1227 -131 q 1235 -144 1235 -136 q 1227 -153 1233 -151 l 1200 -153 q 1182 -167 1182 -153 l 1182 -180 q 1188 -191 1182 -188 l 1235 -191 q 1258 -203 1258 -191 l 1258 -213 q 1246 -220 1255 -220 l 1194 -220 q 1153 -187 1171 -220 q 1152 -167 1152 -177 l 1152 -115 q 1183 -66 1152 -77 q 1198 -65 1192 -65 m 1324 -65 l 1354 -65 q 1396 -100 1376 -65 l 1396 -121 q 1385 -142 1396 -132 q 1396 -167 1396 -161 l 1396 -208 q 1385 -220 1396 -220 l 1377 -220 q 1366 -208 1366 -220 l 1366 -172 q 1360 -157 1366 -159 l 1331 -157 q 1320 -167 1320 -157 l 1320 -207 q 1313 -220 1320 -216 l 1295 -220 q 1289 -208 1289 -217 l 1289 -105 q 1324 -65 1289 -84 m 1529 -65 l 1575 -65 q 1588 -73 1584 -65 l 1588 -86 q 1573 -94 1585 -94 l 1519 -94 q 1513 -109 1513 -96 l 1513 -118 q 1527 -131 1513 -131 l 1558 -131 q 1566 -144 1566 -136 q 1558 -153 1564 -151 l 1531 -153 q 1513 -167 1513 -153 l 1513 -180 q 1519 -191 1513 -188 l 1566 -191 q 1588 -203 1588 -191 l 1588 -213 q 1577 -220 1586 -220 l 1524 -220 q 1484 -187 1501 -220 q 1482 -167 1482 -177 l 1482 -115 q 1514 -66 1482 -77 q 1529 -65 1523 -65 m 1664 -65 l 1711 -65 q 1726 -76 1726 -65 l 1726 -84 q 1703 -94 1722 -94 l 1656 -94 q 1650 -105 1650 -96 l 1650 -117 q 1661 -127 1650 -127 l 1677 -127 q 1727 -155 1721 -127 l 1727 -194 q 1677 -220 1727 -215 l 1634 -220 q 1619 -202 1620 -220 q 1627 -193 1622 -195 l 1681 -193 q 1695 -186 1693 -193 l 1695 -161 q 1684 -155 1692 -155 l 1656 -155 q 1619 -131 1619 -149 q 1617 -120 1617 -129 l 1617 -110 q 1630 -75 1617 -75 q 1664 -65 1648 -65 m 1320 -100 l 1320 -123 q 1326 -127 1320 -125 l 1360 -127 q 1366 -117 1366 -125 l 1366 -109 q 1352 -92 1366 -92 l 1337 -92 q 1320 -100 1324 -92 m 288 -104 l 288 -181 q 303 -193 288 -193 l 319 -193 q 334 -181 334 -193 l 334 -100 q 327 -94 334 -98 l 298 -94 q 288 -104 288 -94 m 419 -104 l 419 -181 q 433 -193 419 -193 l 450 -193 q 464 -181 464 -193 l 464 -100 q 458 -94 464 -98 l 429 -94 q 419 -104 419 -94 m 549 -99 l 549 -186 q 555 -191 549 -188 l 590 -191 q 596 -180 596 -188 l 596 -105 q 590 -94 596 -96 l 555 -94 q 549 -99 552 -94 m 1435 -191 l 1440 -191 q 1453 -203 1453 -191 l 1453 -212 q 1440 -220 1449 -220 l 1435 -220 q 1422 -212 1426 -220 l 1422 -199 q 1435 -191 1426 -191 z "},"":{"ha":688,"x_min":0,"x_max":0,"o":""},"":{"ha":733,"x_min":0,"x_max":0,"o":""},"":{"ha":1027,"x_min":0,"x_max":0,"o":""},"":{"ha":818,"x_min":0,"x_max":0,"o":""},"":{"ha":688,"x_min":0,"x_max":0,"o":""},"":{"ha":688,"x_min":0,"x_max":0,"o":""},"":{"ha":688,"x_min":0,"x_max":0,"o":""},"":{"ha":451,"x_min":0,"x_max":0,"o":""},"":{"ha":688,"x_min":0,"x_max":0,"o":""},"":{"ha":688,"x_min":0,"x_max":0,"o":""},"":{"ha":688,"x_min":0,"x_max":0,"o":""},"":{"ha":728,"x_min":0,"x_max":0,"o":""},"":{"ha":733,"x_min":0,"x_max":0,"o":""}}}
